<svg xmlns="http://www.w3.org/2000/svg" xmlns:xlink="http://www.w3.org/1999/xlink" width="780" height="732" viewBox="0 0 780 732"><defs><style>.a{fill:#fff;stroke:#707070;}.b{clip-path:url(#a);}.c{fill:#ff9d2b;}.d{fill:rgba(0,0,0,0);}.e{fill:#303c78;}</style><clipPath id="a"><rect class="a" width="780" height="732" transform="translate(936 232.34)"/></clipPath></defs><g class="b" transform="translate(-936 -232.34)"><g transform="translate(477.965 0.09)"><g transform="translate(0.004 0.05)"><rect class="c" width="1756.841" height="988.223"/></g><g transform="translate(-0.02 -0.09)"><path class="d" d="M367.209,36.967c22.729,19.52,46.227,39.688,74.056,51.68,39.541,17.08,78.143,43.421,121.5,83.047,12.859,11.761,24.523,22.888,35.674,34.027,51.961,51.973,90.123,102.617,116.635,154.834a488.27,488.27,0,0,0,33.648,56.353A141.642,141.642,0,0,0,764.9,436.319c20.472,20.472,46.251,33.27,68.749,43.079l4.88,2.147-2.867-4.514c-36.674-56.975-60.245-113.06-79.485-161.141A122.488,122.488,0,0,0,728.959,273.7a119.115,119.115,0,0,0-17.751-14.555,133.994,133.994,0,0,1-19.691-16.568c-1.9-1.9-3.867-3.941-5.832-6.1-7.589-8.2-15.714-16.629-24.12-25.035-33.5-33.5-69.371-64.564-106.24-96.089-34.283-29.281-71.384-59.415-114.768-77.325A159.907,159.907,0,0,1,405.176,17.8Q393.341,8.857,382.276,0H322.69q10.3,8.674,20.448,16.8C351.287,23.3,359.376,30.245,367.209,36.967Zm340.3,241.3c6.332,6.625,12.542,13.591,16.4,21.9,3.563,7.65,5,16.214,9.15,23.571,5.1,9.077,13.847,15.519,19.96,23.961,9.6,13.225,12.005,30.147,15.372,46.142,3.038,14.384,7.637,30.562,19.362,40.383-12.847-8.821-21.448-22.607-28.146-36.369-7.528-15.458-13.311-31.843-22.949-46.117-6.588-9.76-14.945-18.459-19.716-29.22-3.782-8.54-5.124-18.008-9.126-26.45-3.9-8.211-10.138-15.043-16.275-21.741q-21.7-23.668-43.384-47.337A415.351,415.351,0,0,1,707.511,278.264Z" transform="translate(71.025 0.11)"/><path class="d" d="M284,47.642q4.246,7.673,9.48,15.336c9.223,13.518,20.923,27.3,35.918,42.25,4.99,5,10.382,10.187,16.971,16.336,5.649,5.271,11.358,10.492,17.08,15.726,12.432,11.4,25.291,23.181,37.357,35.247,20.118,20.13,34.917,37.955,46.568,56.121a189.856,189.856,0,0,0,25.5,31.721,209.472,209.472,0,0,0,29.537,24.4c10.187,7.015,20.606,14.03,30.672,20.74,34.234,23.046,69.627,46.886,102.287,75.056,22.583,19.52,49.826,32.05,85.719,39.6,8.638,1.806,13.237,1.379,15.372-1.427,2.294-3.026,1.22-8.028-3.526-17.288-6.1-11.712-12.322-23.73-20.5-34.515q-6.418-8.468-12.81-16.971c-20.631-27.377-41.969-55.694-64.906-82.1-16.385-18.849-32.014-35.686-47.8-51.461C530.8,160.3,474.772,120.039,415.7,93.479A135.863,135.863,0,0,1,375.437,65.32a175.067,175.067,0,0,1-13.079-14.689c-9.626-12.2-20.118-25.011-31.635-36.528A203.993,203.993,0,0,0,315.144,0H240.49a160.05,160.05,0,0,1,20.594,17.3A133.691,133.691,0,0,1,284,47.642ZM462.206,163.85c42.835,27.6,89.514,51.607,125.663,88.208,9.541,9.65,14.97,20.85,25.621,29.647,13.079,10.822,26.109,21.338,38.114,33.417a371.657,371.657,0,0,1,34.637,40.261c5.649,7.6,18.471,37.406,26.17,40.566-28.744-11.81-52.461-33.258-73.409-56.194-18.544-20.265-35.869-41.542-54.779-61.477l-.207-.22c-17.08-17.849-39.944-26.743-61-39.114-41.237-24.205-76.63-60.562-113.109-91.234C378.8,121.576,347.145,94.772,326.148,60,368.922,97.6,414.356,132.983,462.206,163.85Z" transform="translate(52.939 0.11)"/><path class="d" d="M627.851,102.653c12.408,13.42,24.889,26.353,37.1,38.565,17.886,17.886,35.857,34.8,53.425,50.277,22.717,20.008,47.215,38.48,70.908,56.341,7.589,5.722,15.433,11.639,23.1,17.52,24.242,18.569,43.079,34.881,61.1,52.9,30.062,30.062,52.205,63.7,82.779,93.21l76.361,73.714a523.4,523.4,0,0,1-89.709-72.811c-24.584-24.913-49.131-48.142-73.69-72.7a465.547,465.547,0,0,0-44.97-38.919c-14.067-10.895-27.621-23.327-40.725-35.381l-1.842-1.684c3.916,8.894,7.186,18.215,10.382,27.207,14.2,39.98,33.368,69.81,64.442,98.444a467.818,467.818,0,0,0,46.52,37.04c14.506,10.309,28.561,22.18,42.152,33.648q5.527,4.672,11.066,9.309c43.36,36.186,95.54,78.082,153.723,114.683a101.247,101.247,0,0,1,14.457,11.249,148.641,148.641,0,0,1,20.557,23.608,460.005,460.005,0,0,0,66.247,75.9c4.185,3.843,8.54,7.7,12.884,11.444,7.82,6.71,14.811,12.92,21.4,18.984,28.67,26.414,49.655,50.412,66.016,75.508a99.065,99.065,0,0,0,15.86,18.642,136.017,136.017,0,0,0,30.269,20.643c45.141,23.278,84.365,55.279,120.014,86.415,9.76,8.54,21.046,15.141,30.281,17.8,26.255,7.54,52.278,14.018,77.447,20.277,9.162,2.281,18.166,4.526,26.95,6.759l4.063,1.037-2.318-3.5c-52.717-79.851-101.7-139.559-154.163-187.884a642.018,642.018,0,0,0-103.971-78.155c-17.959-10.8-36.979-19.606-55.377-28.061q-7.851-3.66-15.677-7.32a161.146,161.146,0,0,1-41.017-27.438c-3.953-3.66-7.832-7.589-11.517-11.724-8.8-9.87-20.5-22.668-33.039-34.222-19.789-18.227-38.382-30.574-58.561-38.858a74.127,74.127,0,0,1-21.96-14.518c-7.991-7.32-14.9-16.007-21.851-24.95-13.494-17.373-29.976-37.6-49.948-55.987a260.423,260.423,0,0,0-34.161-26.78,68.75,68.75,0,0,1-9.053-7.149c-6.832-6.3-13.14-14.018-19.228-21.485-1.732-2.111-3.44-4.209-5.148-6.247-7.857-9.406-14.238-19.691-20.643-30.293-24.523-40.627-45.9-83.279-72.165-122.771-26.011-39.114-63.807-58.805-99.664-87.549a265.8,265.8,0,0,1,86.866,127.286C808.562,175.22,661.182,129.518,625.192,0H574.78c1.379,3.66,2.708,7.393,3.928,11.053C588.554,40.359,601.316,74.031,627.851,102.653Zm740.13,647.664c10.822,9.76,20.594,20.533,31.391,30.257,14.8,13.311,31.428,24.4,46.214,37.821,34.93,31.428,58.561,73.983,94.15,104.654-52.827-15.86-87.33-65.711-133.691-95.614-20.265-13.067-43.274-22.644-59.952-40.054-15.738-16.287-24.156-37.821-37.406-55.865s-33.051-27.475-48.264-43.921C1298.367,704.81,1336.956,722.489,1367.981,750.317Z" transform="translate(126.492 0.11)"/><path class="d" d="M8.821,697.909Q4.392,693.48,0,689.21v53.206c10.114,9.394,20.667,19.154,32.014,29.61,6.1,5.6,12.31,11.175,18.361,16.58,10.443,9.309,21.228,18.947,31.355,28.915l.22.219c4.258,4.258,7.674,9.614,11.615,15.86l1.915,2.977H126.6C96.48,792.01,61.855,753.371,33.063,722.9,24.584,713.916,16.653,705.741,8.821,697.909Z" transform="translate(0.024 151.756)"/><path class="d" d="M757.451,123.137c33.636,17.08,71.213,31.489,100.2,55.475,44.434,36.759,105.118,50.29,151.845,84.267,13.738,10,27.853,15.153,43.14,15.751,18.3.732,37.211,2.684,55.536,4.587h.317c26.731,2.769,51.912,14.872,74.824,35.991.939.866,1.879,1.745,2.806,2.647l6.722,6.454c15.36,14.738,31.233,29.976,46.483,45.287,1.525,1.525,3.062,3.013,4.587,4.4,12.615,11.639,25.438,19.142,39.163,22.949a79.3,79.3,0,0,1,33.38,18.3,87.2,87.2,0,0,1,9.126,9.858,48.221,48.221,0,0,0,5.075,5.429,68.508,68.508,0,0,0,8.748,6.771,425.445,425.445,0,0,1,55.487,43.457c11.5,10.6,23.181,22.363,34.527,34.966a20.368,20.368,0,0,0,1.684,1.708,19.377,19.377,0,0,0,9.565,4.88l4.319.915-2.708-3.489c-3.587-4.636-7.149-9.394-10.614-13.994-7.528-10.041-15.312-20.411-23.742-30.11l-26.194-30.122c-47.813-55.035-97.261-111.925-146.953-167.144-6.991-7.747-14.335-15.189-21.838-22.095a297.34,297.34,0,0,0-122.467-68.736c-6.283-1.757-12.676-3.66-18.874-5.429-12.786-3.733-26.011-7.589-38.968-10.687-10-2.44-16.348-1.989-19.948,1.293-2.708,2.44-3.66,6.369-2.843,11.932a33.119,33.119,0,0,0,10.138,20.008,36.437,36.437,0,0,0,18.7,8.821c13.616,2.44,27.426,4.722,40.786,6.942,15.616,2.586,31.721,5.258,47.691,8.186,28.292,5.185,54.242,18.52,77.142,39.614,3.843,3.55,7.65,7.32,11.322,11.334,25.877,28.061,53.388,58,80.339,88.867,4.783,5.466,8.272,12.115,11.651,18.532,1.318,2.513,2.672,5.087,4.1,7.6l-2.44,1.22q-6.881-6.332-13.811-12.627-7.32-6.685-14.64-13.42c-6.576-6.1-11.981-11.127-17.08-15.946-4.331-4.136-8.65-8.186-12.835-12.042-60.391-55.658-114.561-89.318-170.45-105.947a194.032,194.032,0,0,0-37.248-7.162c-37.3-3.465-63.441-27.121-94.638-44.458-17.08-9.5-100.482-66.479-71.982-83.462-2,1.22,30.037,23.742,32.441,25.291,42.933,27.719,76.935,24.4,125.016,18.374,10.346-1.305,21.033-2.647,31.721-3.562,46.922-4.038,87.232,10.126,123.223,43.3a270.894,270.894,0,0,1,36.064,41.481c8.54,11.981,17.08,25.181,27.634,42.823,19.52,32.807,41.078,59.781,65.723,82.486a305.644,305.644,0,0,0,31.111,25.133,227.1,227.1,0,0,1,23.181,18.715,220.822,220.822,0,0,1,44.775,57.793c11.4,20.9,26.182,45.214,49.533,67.236a125.35,125.35,0,0,1,28.622,42.7c19.447,49.521,52.1,94.967,99.823,138.937,5.966,5.5,12.2,10.98,18.666,16.495V682.594a235.907,235.907,0,0,1-29.146-31.721c-33.1-43.921-57.842-94.442-93.564-137.217-12.676-15.165-26.389-29.5-37.906-45.58-14.787-20.655-25.8-44.031-42.445-63.234-17.08-19.728-39.321-34.161-59.2-51.058a299.831,299.831,0,0,1-84.182-117.5,2049.425,2049.425,0,0,1,212.37,239.235c19.35,25.621,36.125,54.56,57.244,78.594,21.656,24.669,51.327,43.213,76.777,64.161v-43.14a303.8,303.8,0,0,0-29.488-21.094,228.163,228.163,0,0,1-24.083-17.483,220.705,220.705,0,0,1-47.74-55.377c-12.469-20.265-28.512-43.787-52.986-64.552a125.4,125.4,0,0,1-30.806-41.1c-21.96-48.423-56.988-92.112-106.948-133.532a718.754,718.754,0,0,0-58.378-43.238c-18.178-12.2-36.8-24.4-54.792-36.1-24.291-15.86-49.4-32.233-73.751-48.972-10.48-7.2-21.058-15.214-31.44-23.827-7.881-6.539-15.738-13.42-23.327-20.631C1056.37,46.629,1032.713,23.181,1009.643,0H937.063c16.971,19.752,34.71,38.846,55.328,54.669,35.234,27.072,77.655,43.64,113.133,70.566a351.975,351.975,0,0,1-79.765-27.89c-21.961-10.773-42.7-23.815-63.441-36.833-19.045-11.968-38.455-24.242-52.705-41.64A171.834,171.834,0,0,1,896.595,0H838.363c5.393,7.491,12.2,14.006,19.008,20.362,35.7,33.6,72.64,67.98,118.428,85.5-19.386,3.953-39.248-2.9-57.341-10.883C870.681,73.922,825.37,42.311,795.93,0H749.093c.256.549.525,1.086.744,1.659,3.807,9.76,2,20.74,4.209,31.038,2.647,12.261,10.809,22.522,19.228,31.831a347.33,347.33,0,0,0,48.02,43.921c-45.275-20.021-93.137-42.2-119.88-83.889A191.782,191.782,0,0,1,688.446,0H648.38c3.38,19.972,9.065,39.139,20.045,56.121C688.824,87.732,723.924,106.142,757.451,123.137Z" transform="translate(142.686 0.11)"/><path class="d" d="M15.865,495.009l.793.854,5.454-2.44-1.061-1.586c-2.66-3.99-5.295-8.089-7.833-12.066-4.209-6.6-8.54-13.42-13.237-19.911V477.4l4.453,4.966C8.179,486.518,12.034,490.837,15.865,495.009Z" transform="translate(0.02 101.292)"/><path class="d" d="M63.82,127.362a191.513,191.513,0,0,0,31.428,42.8l.9.891c12.64,12.652,26.584,24.4,40.066,35.71,5.868,4.88,11.92,10.029,17.788,15.128l1.623,1.415.915-1.952c12.578-27.146,8.406-42.237-19.411-70.213l-.39-.4c-3.44-3.428-7.04-6.783-10.529-10.029-3.111-2.891-6.332-5.881-9.394-8.906-3.477-3.428-7.1-6.832-10.6-10.138-4-3.77-8.15-7.674-12.066-11.59A163.745,163.745,0,0,1,81.12,95.653,216.934,216.934,0,0,0,64.369,76.706a148.022,148.022,0,0,0-37.7-27.939A217.136,217.136,0,0,1,0,32.59V53.916A319.8,319.8,0,0,1,25.267,76.511C41.481,92.75,54.108,109.379,63.82,127.362Z" transform="translate(0.024 7.281)"/><path class="d" d="M0,766.54v42.7q6.588,5.051,13.176,10.358h72.4c-11.236-7.32-22.876-13.982-34.161-20.448C34.161,789.245,16.544,779.118,0,766.54Z" transform="translate(0.024 168.77)"/><path class="d" d="M123.772,271.866c6.82,6.82,13.237,13.835,19.081,20.875l1.452,1.745,1.22-1.952c5.6-9.309,4.026-20.13-4.563-31.269-5.368-6.966-11.432-13.64-17.3-20.094-4.295-4.722-8.748-9.614-12.859-14.555-2.44-2.9-4.88-5.783-7.406-8.687-8.113-9.37-16.483-19.069-21.961-29.171a183.319,183.319,0,0,0-32.77-43.921q-1.854-1.843-3.77-3.66L43.384,139.7c-6.393-6.393-12.017-13.957-17.459-21.265-2.672-3.587-5.429-7.32-8.26-10.846-4.5-5.7-8.967-11.554-13.286-17.141L0,84.75v34.734a59.787,59.787,0,0,1,3.44,10.224c.512,1.928,1.049,3.916,1.684,5.832l-1.952.293L0,132.636v41.6c14.762,11.883,30.061,23,45.031,33.856C71.762,227.469,99.42,247.514,123.772,271.866Z" transform="translate(0.024 18.757)"/><path class="d" d="M316.418,173.805c10.309,15.372,20.96,31.269,31.318,46.947,1.22,1.9,2.574,3.819,3.88,5.746,4.77,6.954,9.687,14.165,12.31,21.2,10.114,27.255,27.194,53.035,50.79,76.63,3.794,3.782,7.8,7.564,11.92,11.249,5.917,5.271,11.663,10.7,17.08,16.129a370.892,370.892,0,0,1,64.918,87.2,400.07,400.07,0,0,0,68.944,92.881c6.637,6.637,13.591,13.091,20.655,19.179,27.146,23.388,58.22,37.516,95,43.177,40.261,6.21,77.386,20.435,116.22,31.257,11.3,3.148,21.412,7.54,32.014,12.054s21.961,6.283,32.172,12.31c7.54,4.416,14.421,9.955,22.144,14.067,7.259,3.855,15.141,6.393,22.607,9.833,38.98,18.008,62.526,59.342,72.592,101.079A74.838,74.838,0,0,0,973.7,742.875c-5.332-5.82-11.59-10.785-16.483-17s-8.369-13.737-13.42-19.972c-8.064-9.943-19.911-16.251-32.209-19.813s-25.157-4.6-37.919-5.624c-2.245-.183-5.051,0-6.039,1.964a5.813,5.813,0,0,0,.134,4c5.612,19.874,10.675,33.966,23.8,50.131,10.98,13.555,23.778,26.133,32.672,41.261,14.64,24.779,24.693,52.181,41.31,75.642,17.08,24.1,40.261,43.055,63.527,61.258,31.221,24.4,63.149,48.179,93.71,73.495H1190.2c-18.032-16.788-38.3-31.4-58.561-45.141-19.728-13.42-39.846-26.3-59.184-40.261C1054,889.4,1038.589,872.064,1020.52,859c-11.224-8.125-22.2-17.276-28.488-29.9-2.745-5.515-4.514-11.529-7.918-16.666-6.808-10.3-19.521-15.982-25.12-26.963-2.44-4.66-3.318-9.919-4.88-14.909-6.43-19.874-23.181-34.319-39.3-47.691a88.306,88.306,0,0,1,45.373,37.821c4.88,8.223,8.333,17.263,14.116,24.852,6.844,8.979,16.446,15.372,25.1,22.619,18.8,15.751,33.38,35.759,51.656,52.059,17.629,15.714,39.553,28.329,59.781,40.517,42.506,25.621,88.476,47.484,124.443,82.425,1.732,1.672,3.428,3.392,5.112,5.124h27.133c-10.407-14.116-20-28.878-30.867-42.7-17.08-21.68-38.882-37.357-58.964-56.024-7.076-6.576-14.152-13.42-18.679-21.961-5.527-10.431-6.844-22.595-11.59-33.4s-13.054-20.155-19.777-30.074a135.651,135.651,0,0,1-20.387-47.581,607.182,607.182,0,0,1,61.27,83.731c20.033,32.941,44.031,32.88,73.6,51.851s57.646,42.286,73.665,74.129a191.967,191.967,0,0,1,9.126,21.961h49.948c-12.347-17.52-22.473-36.6-34.6-54.279-21.3-31.123-56.67-42.7-78.631-73.36-25.181-35.186-70.03-50.631-99.908-81.925-17.373-18.191-27.841-40.822-37.162-63.856-9.528-23.559-23.778-40.8-34.783-63.185a117.178,117.178,0,0,0-5.844-11.517c-7.735-12.139-22.082-18.544-30.928-29.915-4.112-5.271-6.881-11.444-9.76-17.483-15.629-33.063-34.783-60.184-57.451-87.964-15.738-19.276-31.416-38.614-46.825-58.159,80.156,66.7,171.06,134.2,233.66,218.129,16.117,21.619,30.623,45.495,34.685,72.153l-63.344-56.121a291.661,291.661,0,0,0,69.139,92.3c13.115,11.712,28.17,20.667,39.041,34.161,9.76,12.054,15.7,27.048,26.841,38.87,30.318,32.221,74.7,51.083,97.6,88.916,12.908,21.3,26.377,37.406,41.737,53.3h56.731c-15.226-21.485-33.075-43.335-54.718-63.283q-5.49-4.978-10.98-9.76c-1.025-.854-2.025-1.745-3.038-2.635a66.807,66.807,0,0,0-8.65-6.808,193.545,193.545,0,0,1-29.378-22.241c-19.679-18.142-35.381-40.261-48.167-67.516a141.986,141.986,0,0,0-32.807-45.348c-1.733-1.586-3.538-3.172-5.368-4.709-1.22-1.049-2.44-2.135-3.66-3.245-18.3-16.836-27.121-37.308-34.612-56.829-11.066-28.878-25.194-62-52.888-89.514-12.932-12.859-25.926-25.315-38.638-37.016-18.593-17.141-37.247-33.307-55.438-48.057-23.51-19.057-48.8-36.515-73.2-53.4-7.808-5.4-15.86-10.98-23.791-16.544-24.974-17.568-44.47-33.1-63.2-50.375-17.849-16.434-32.941-34.454-48.533-52.632-7.759-9.016-17.654-15.86-25.108-25.377a171.542,171.542,0,0,1-19.825-32.465c-6.954-14.738-10.809-29.781-15.141-45.239-3.88-13.835-10.895-27.365-18.752-39.346-7.04-10.712-19.521-18.422-29.439-26.56-23.412-19.118-47.471-37.467-72.36-54.608a101.617,101.617,0,0,1-13.994-11.822,148.983,148.983,0,0,1-19.521-24.4,459.722,459.722,0,0,0-63.088-78.533c-4.026-4.026-8.2-8.052-12.408-11.968-2.952-2.745-5.771-5.4-8.54-8.016h-32.4A777.911,777.911,0,0,1,604.881,62.49C582.433,40.92,559.948,19.3,535.608,0h-78.35q4.612,3.171,9.26,6.234c17.5,11.517,36.137,21.094,54.181,30.367,5.136,2.635,10.26,5.258,15.372,7.942a161.8,161.8,0,0,1,39.846,29.1,154.86,154.86,0,0,1,10.98,12.2c8.382,10.212,19.52,23.486,31.611,35.539,19.02,19.032,37.089,32.123,56.866,41.225a73.988,73.988,0,0,1,21.4,15.4c7.686,7.7,14.238,16.6,20.814,25.828,12.774,17.9,28.427,38.785,47.581,57.988a260.355,260.355,0,0,0,33.063,28.146,70.124,70.124,0,0,1,8.748,7.515c6.564,6.564,12.542,14.543,18.3,22.253,1.635,2.172,3.257,4.343,4.88,6.442,7.466,9.76,13.42,20.265,19.386,31.111,18.5,33.7,36.6,66.98,55.694,102.214,31.1,57.036,77.911,102.934,116.891,154.26,34.393,45.214,60.9,107.363,77.765,161.617,12.542,40.407,21.96,85.487,54.9,112.169a205.994,205.994,0,0,1-66.479-93.308c-11.7-33.587-15.238-71.384-37.54-99.091-11.676-14.518-27.621-24.974-40.456-38.48-15.433-16.239-26.548-37-45.227-49.375-8.613-5.7-18.569-9.406-26.316-16.214-24.4-21.411-23.181-53.535-53.449-68.932-36.821-18.727-74.1-37.077-106.8-62.953-13.323-10.541-27.243-16.263-42.469-17.544-18.2-1.464-37.064-4.2-55.3-6.844h-.3c-26.6-3.855-51.241-16.983-73.287-39.041-.915-.9-1.806-1.818-2.708-2.757L598,386.273c-14.738-15.324-29.976-31.245-44.592-47.105-1.452-1.586-2.928-3.135-4.392-4.587-12.139-12.2-24.632-20.167-38.2-24.535a79.3,79.3,0,0,1-32.6-19.594,86.136,86.136,0,0,1-8.711-10.236,47.561,47.561,0,0,0-4.88-5.624,66.594,66.594,0,0,0-8.455-7.125,425.943,425.943,0,0,1-53.681-45.678c-11.029-11.078-22.095-23.315-33.075-36.345-.549-.659-1.074-1.22-1.61-1.781a19.513,19.513,0,0,0-9.358-5.21l-4.282-1.1,2.562,3.66c3.392,4.77,6.771,9.675,10.029,14.421,7.113,10.334,14.47,21.021,22.5,31.05q12.481,15.579,24.937,31.172c45.531,56.939,92.6,115.805,140.01,172.963,6.661,8.04,13.7,15.775,20.911,22.985a297.4,297.4,0,0,0,119.563,73.617c6.21,2.013,12.53,4.136,18.642,6.2,12.627,4.246,25.682,8.65,38.5,12.273,9.894,2.806,16.239,2.647,19.972-.476,2.818-2.367,3.9-6.222,3.331-11.81A33.122,33.122,0,0,0,765.815,513a36.593,36.593,0,0,0-18.3-9.577c-13.506-2.989-27.219-5.832-40.468-8.6-15.507-3.221-31.525-6.552-47.325-10.126-28.061-6.344-53.437-20.74-75.447-42.7-3.66-3.66-7.32-7.662-10.858-11.785-24.706-29.073-50.973-60.135-76.642-92.076-4.551-5.661-7.759-12.444-10.87-19-1.22-2.562-2.44-5.185-3.794-7.759l2.44-1.11q6.625,6.6,13.286,13.189l14.055,13.957c6.32,6.332,11.517,11.615,16.361,16.629,4.16,4.319,8.308,8.54,12.322,12.566C598.647,424.68,651.389,460.549,706.5,479.422a194.961,194.961,0,0,0,37.113,8.589c26.67,3.575,50.021,15.177,71.469,35.466,12.713,12.029,26.975,20.008,39.895,31.123,14.762,12.713,23.827,31.135,37.821,44.665,13.42,12.944,30.269,21.668,45.763,32.05a244.544,244.544,0,0,1,67.407,68.017c16.519,24.962,23.181,54.279,40.664,78.277,10.98,15.067,25.621,28.292,31.221,46.081,1.83,5.771,1.781,13.615-3.721,16.153,1.135-13.762-8.54-26.157-19.459-34.6s-23.693-14.64-33.221-24.632c-20.057-20.96-21.363-53.474-35.247-78.924-18.3-33.587-54.108-44.153-84.4-63.222-19.411-12.2-35.637-28.793-53.937-42.6C824.767,578.428,798.8,569.021,769.78,571c-6.857.464-13.774,1.049-20.472,1.61-10.382.878-21.131,1.781-31.843,2.269-47.044,2.123-86.744-13.689-121.369-48.3a271.118,271.118,0,0,1-34.344-42.945c-8.077-12.322-16.056-25.865-25.852-43.921-18.227-33.575-38.6-61.416-62.295-85.109a306.349,306.349,0,0,0-30.025-26.414,226.356,226.356,0,0,1-22.461-19.642,221.254,221.254,0,0,1-42.384-59.586c-10.517-21.338-24.3-46.239-46.739-69.2a125.229,125.229,0,0,1-26.841-43.787C288.613,88.257,260,43.689,217.852,0H195.22c19.716,21.485,38.773,47.056,59.086,79.3C274.339,111.023,295.726,142.951,316.418,173.805Z" transform="translate(42.978 0.11)"/><path class="d" d="M1356.523,820.048c-5.71-5.636-11.627-11.249-17.349-16.69-8.418-7.979-17.08-16.226-25.242-24.681-2.513-2.623-5.087-5.136-7.65-7.5a140.465,140.465,0,0,0-48.887-29.818c-10-3.55-20.143-11.066-29.952-18.3l-.4-.3c-8.882-6.576-17.63-13.8-26.084-20.741-4.709-3.892-9.577-7.906-14.433-11.785-3.66-2.916-7.466-5.759-11.151-8.54a232.538,232.538,0,0,1-18.752-14.982l-.891-.83c-12.2-11.541-24.266-23.766-35.869-35.6q-7.417-7.54-14.848-15.043l-2.574,1.9a251.87,251.87,0,0,0,29.83,44.653c19.276,22.79,39.151,45.812,58.366,68.065,31.318,36.284,63.722,73.812,94.455,111.4q4.881,5.953,9.931,11.627h24.73c-30.5-29.281-56.719-61.4-78.594-89.355-2.44-3.123-3.514-7.076-4.636-11.261-.39-1.452-.781-2.928-1.22-4.38l1.976-.708,30.9,28.463,18.74,17.288.817.756c25.279,23.29,49.326,42.933,72.616,59.2h41.481a164.5,164.5,0,0,1-39.98-27.682C1360.085,823.574,1358.28,821.805,1356.523,820.048Z" transform="translate(242.592 135.478)"/><path class="d" d="M1547.193,781.729a183.125,183.125,0,0,1-22.058-17.849q-2.758-2.562-5.478-5.148c-8.955-8.54-17.727-16.775-26.072-24.4-38.431-35.381-73.787-64.869-108.094-90.038-8.406-6.173-16.776-12.786-24.876-19.179-23.5-18.569-47.813-37.76-76.105-48.606-40.261-15.409-79.851-40.188-124.8-78.021-13.323-11.212-25.438-21.863-37.028-32.538-54.047-49.8-94.247-98.822-122.869-149.929a490.843,490.843,0,0,0-35.93-54.9,140.325,140.325,0,0,0-16.958-18.727c-21.29-19.618-47.581-31.343-70.457-40.261l-4.99-1.94,3.087,4.38c39.029,55.365,64.82,110.437,85.988,157.652a122.694,122.694,0,0,0,28.927,41.042,119.36,119.36,0,0,0,18.3,13.811,134.312,134.312,0,0,1,20.313,15.751c1.976,1.818,4.014,3.782,6.1,5.82,7.93,7.881,16.385,15.97,25.133,24.035,34.844,32.1,71.982,61.672,110.071,91.661,35.454,27.878,73.763,56.451,117.843,72.567a159.677,159.677,0,0,1,36.284,18.813c40.712,28.439,75.093,55.706,105.105,83.365,51.693,47.581,90.807,96.748,119.563,150.173a228.769,228.769,0,0,0,16.9,26.975V796.43c-1.135-1.147-2.294-2.269-3.489-3.367A120.926,120.926,0,0,0,1547.193,781.729Z" transform="translate(191.775 44.157)"/><path class="d" d="M1464.353,651.223c-12.274-16.019-17.214-37.662-28.268-54.816-12.517-19.435-27.268-36.052-44.348-51.8-5.2-4.783-10.8-9.76-17.63-15.616-5.856-5.039-11.773-10.029-17.69-15.019-12.883-10.883-26.206-22.131-38.76-33.7-20.924-19.276-36.442-36.491-48.8-54.157a189.765,189.765,0,0,0-26.768-30.611,209.633,209.633,0,0,0-30.5-23.181c-10.468-6.588-21.155-13.164-31.489-19.52-35.149-21.631-71.494-44.006-105.276-70.762-23.364-18.544-51.095-30-87.269-36.064-8.7-1.464-13.274-.854-15.3,2.05-2.172,3.111-.939,8.077,4.234,17.08,6.552,11.444,13.286,23.181,21.887,33.648q6.747,8.2,13.494,16.422c21.729,26.523,44.2,53.937,68.212,79.387,17.08,18.154,33.441,34.332,49.863,49.46,58.391,53.8,115.988,91.7,176.1,115.842a135.8,135.8,0,0,1,41.359,26.487,173.54,173.54,0,0,1,13.652,14.177c10.126,11.761,21.131,24.169,33.112,35.21,15.189,13.982,30.135,24.071,45.69,30.818,11.529,4.99,21.96,12,32.941,22.082a246.378,246.378,0,0,1,18.056,18.764c4.88,5.515,9.76,11.285,14.518,16.861,12.017,14.128,24.4,28.683,37.821,41.3V701.4a113.057,113.057,0,0,0-19.142-15.726C1504.345,673.391,1478.481,669.657,1464.353,651.223ZM1322.72,539.871c-14.018-10.529-27.3-20.74-42.445-29.72a444.124,444.124,0,0,1-90.063-70.518c-16.08-16.336-30.879-33.917-47.5-49.692-13.738-13.042-28.634-24.767-42.969-37.113-7.149-6.1-14.177-12.469-20.838-19.167-3.831-3.855-13.274-10.517-13.53-16.385,31.489,2.44,61.49,26.438,84.28,46.361A1257.716,1257.716,0,0,1,1253.9,465.961c20.387,22.5,42.884,43.36,64.393,64.893,2.477,2.513,5.161,5.685,4.429,9.065Z" transform="translate(213.723 54.063)"/><path class="d" d="M782.89,774.06c3.123,14.64,6.393,29.647,11.249,43.848h36.6C813.732,803.853,796.969,792.177,782.89,774.06Z" transform="translate(172.282 170.425)"/><path class="d" d="M1032.385,68.114a293.5,293.5,0,0,0,24.767,18.422c23.864,15.86,46.032,34.466,72.14,46.52,24.608,11.358,51.119,19.179,73.031,35.686,16.373,12.334,29.451,29.1,47.386,39.041,20.265,11.236,46.361,13.616,61.355,31.245,13.1,15.348,19.154,36.711,31.086,53.266,13.518,18.752,29.122,34.576,47.008,49.4,5.441,4.514,11.285,9.175,18.422,14.64q9.174,7.088,18.447,14.067c13.42,10.2,27.329,20.74,40.468,31.623,21.96,18.166,38.3,34.539,51.583,51.534A189.471,189.471,0,0,0,1543.162,480v-54.9q-6.185-5.979-12.2-12.005c-21.521-21.411-45.141-41.066-67.7-61.441-2.6-2.355-5.441-5.332-4.88-8.8,14.555,9.76,28.353,19.313,43.921,27.475a444.006,444.006,0,0,1,40.859,24.291v-42.64a488.046,488.046,0,0,0-69.188-29.964,135.871,135.871,0,0,1-42.7-24.3,171.312,171.312,0,0,1-14.384-13.42c-10.712-11.212-22.351-23.022-34.893-33.417-15.86-13.176-31.343-22.461-47.24-28.39-11.773-4.38-22.583-10.846-34.027-20.338a248.694,248.694,0,0,1-19.02-17.788c-5.136-5.258-10.334-10.761-15.372-16.08-13.311-14.091-27.085-28.658-41.847-40.9a191.791,191.791,0,0,0-15.4-11.578c-8.113-5.454-15.958-11.31-23.3-17.4-23-19.057-42.481-41.274-61.319-69.908q-9.174-13.982-18.9-28.5h-49.521c14.1,22.668,28.28,45.226,47.105,64.027,1.94,1.928,1.842,4.746-.39,3.172-27.378-19.374-51.278-42.591-74.092-67.2H971.14C989.611,26.975,1009.681,49.3,1032.385,68.114Z" transform="translate(213.703 0.11)"/><path class="d" d="M1348.252,158.6a642.861,642.861,0,0,0,107.9,72.7c11.944,6.356,24.291,11.859,36.6,17V216.1c-18.093-8.87-35.381-19.045-51.107-31.721-11.31-9.126-21.631-19.435-32.941-28.573-15.47-12.53-32.66-22.778-48.118-35.308-36.516-29.561-62.331-70.762-99.493-99.579,53.6,13.079,90.648,61.062,138.5,88.489,20.923,11.993,44.409,20.35,61.965,36.869,12.8,11.92,21.4,27.17,31.184,41.481V127.53a100.375,100.375,0,0,0-14.14-14.311,135.44,135.44,0,0,0-31.306-19.02c-46.361-20.887-87.146-50.814-124.37-80.034A95.5,95.5,0,0,0,1298.353,0h-98.1C1251.028,66.516,1298.462,117.281,1348.252,158.6Z" transform="translate(264.113 0.11)"/><path class="d" d="M1197.369,111.279a119.433,119.433,0,0,0,14.982,10.541A184.4,184.4,0,0,1,1235.3,138.5q2.915,2.439,5.746,4.88c9.394,8.064,18.581,15.86,27.316,23.059,40.261,33.356,77.081,60.928,112.657,84.28,8.711,5.71,17.422,11.883,25.84,17.837,24.4,17.312,49.716,35.222,78.545,44.568q13.054,4.233,26.145,9.76V274.787a270.342,270.342,0,0,0-31.513-11.993,159.973,159.973,0,0,1-37.162-16.836c-42.14-26.267-77.9-51.7-109.315-77.765-54.108-44.86-95.735-91.868-127.249-143.719A230.431,230.431,0,0,0,1189.232,0H1114.81c21.424,26.06,43.555,53,58.866,82.34A94.246,94.246,0,0,0,1197.369,111.279Z" transform="translate(245.314 0.11)"/><path class="d" d="M1345.271,24.153c2.635,2.44,5.344,4.88,8.016,7.088a140.349,140.349,0,0,0,50.387,27.219c10.175,3.026,20.74,10,30.867,16.739l.415.281c9.211,6.1,18.3,12.859,27.133,19.386l4.795,3.55V62.23c-19.52-20.435-39.517-41.237-59.245-62.221h-20.85c11.444,12.2,22.095,24.193,31.94,35.491,2.611,3,3.867,6.893,5.21,10.98.464,1.427.939,2.891,1.476,4.319l-1.927.805-32.343-26.841q-9.833-8.125-19.63-16.275l-.854-.72c-3.221-2.66-6.393-5.246-9.565-7.808H1317.82l.939.805C1327.58,8.342,1336.706,16.138,1345.271,24.153Z" transform="translate(289.982 0.101)"/><path class="d" d="M1455.751,429.537a48.192,48.192,0,0,0-5.356-5.149,68.144,68.144,0,0,0-9.089-6.308,425.465,425.465,0,0,1-57.683-40.493c-12.042-9.992-24.254-21.131-36.308-33.124-.61-.6-1.22-1.135-1.769-1.61a19.408,19.408,0,0,0-9.76-4.331l-4.355-.683,2.879,3.343c3.819,4.429,7.637,9,11.334,13.42,8.04,9.626,16.361,19.581,25.291,28.817l27.731,28.719c21.485,22.266,43.287,44.848,65.271,67.48V437.565A87.822,87.822,0,0,1,1455.751,429.537Z" transform="translate(292.977 74.444)"/><path class="d" d="M1429.262,17.507c1.061.805,2.123,1.635,3.172,2.44a66.918,66.918,0,0,0,8.992,6.344c1.891,1.037,3.745,2.111,5.6,3.2V0H1408.07c3.172,2.83,6.381,5.649,9.76,8.406C1421.539,11.517,1425.407,14.64,1429.262,17.507Z" transform="translate(309.84 0.11)"/><path class="d" d="M857.194,861.12c-3.026-10.675-8.26-19.9-12.2-30.11s-4.185-18.13-6.991-28.561c-6.393-23.693-26.121-47.459-43.775-63.7,9.272-2.44,18.2,4.551,24.876,11.444,32.014,33.05,51.388,76.41,77.2,114.17,16.812,24.535,33.868,49.436,56.585,68.517,23.351,19.63,52.461,33.014,72.714,55.341h34.527c-.354-.817-.7-1.635-1.049-2.44a42.056,42.056,0,0,1,3.587,2.44h34.356c-3.087-4.685-5.905-9.589-9.236-14.116-25.853-35.247-76.618-42.115-107.96-72.58-13.3-12.932-22.4-29.464-31.892-45.4C906.2,786.137,853.253,723.379,784.724,678.568c-32.746-21.424-67.431-39.639-101.7-58.439-17.215-9.443-34.393-18.971-51.241-29.122-11.968-7.223-38.748-18.3-46.044-30.306A219.611,219.611,0,0,0,654.6,631.243c-29.744-13.579-60.184-27.634-83.206-50.839-15.3-15.421-26.645-34.234-37.821-52.852-21.96-36.6-42.7-66.418-71.079-97.6q-6.186-6.771-12.359-13.591C414.751,377.1,388.63,333.922,372.452,288c-13.42-38.053-33.051-69.176-61.843-97.98A423.943,423.943,0,0,1,228.44,74.678,366.49,366.49,0,0,0,180.517,0H160.57c6.527,8.211,11.59,17.971,16.483,27.475l1.891,3.66c4.319,8.308,8.272,16.885,12.09,25.181,5.393,11.676,10.98,23.754,17.617,35.308,5.649,9.76,13.42,19.045,21.021,28.061,2.916,3.465,5.942,7.04,8.772,10.59,3.538,4.417,7.259,8.821,10.87,13.091,6.405,7.576,13.03,15.409,18.727,23.486,8.211,11.6,16.214,23.608,23.961,35.2,10.773,16.153,21.96,32.855,33.807,48.8,27.024,36.271,43.762,73.617,49.728,111.023,6.722,42.067,29.171,81.742,68.614,121.137,2.538,2.538,5.185,5.112,7.881,7.662q2.708,2.562,5.295,5.161c17.08,17.08,27.926,33.038,33.966,50.094,7.2,20.289,21.7,37.577,35.722,54.291,3.721,4.429,7.564,9,11.2,13.567a240.261,240.261,0,0,0,17.568,19.691c40.859,40.785,101.982,63.161,156.761,78.118a585.371,585.371,0,0,0-108.18-72.8,268.547,268.547,0,0,1,81.339,30.184c13.92,7.918,27.231,17.19,38.077,28.988,9.5,10.224,16.824,22.119,24.144,33.941l21.131,34.271c17.642,28.585,37.638,56.756,44.6,89.965,6.759,32.27,3.453,65.882,11.627,97.859A282.037,282.037,0,0,0,836.5,988.162H877.08C864.734,947.01,868.906,902.565,857.194,861.12Z" transform="translate(35.354 0.11)"/><path class="d" d="M416.1,843.573c-20.057-13.31-40.6-26.462-60.477-39.187-25.023-16.019-50.887-32.587-76-49.606A252.378,252.378,0,0,1,242.3,724.352c-20.338-20.338-34.356-42.628-42.847-68.126-11.139-33.5-27.78-61-50.863-84.084-3.233-3.233-6.625-6.405-10.1-9.443-.83-.72-1.671-1.513-2.5-2.343-5.515-5.5-10.151-12.481-14.64-19.228-1.135-1.72-2.281-3.428-3.428-5.1C109.9,524.316,101.9,512.311,94.162,500.72c-12.517-18.788-25.474-38.2-38.858-57-23.791-33.441-38.284-68.09-43.067-102.983A169.89,169.89,0,0,0,0,297v82.828a395.448,395.448,0,0,1,15.433,36.735l.964,2.66c4.148,11.5,8.443,23.388,14.872,34.49,8.406,14.531,17.812,29.7,29.5,42.03,44.58,47.044,76.728,92.075,98.285,137.644,18.166,38.394,42.7,72.787,75.068,105.142a509.829,509.829,0,0,0,55.17,47.41c24.144,18.032,49.606,34.624,74.227,50.668,8.357,5.454,16.714,10.895,25.023,16.4a245.228,245.228,0,0,1,38.785,31.025c3.306,3.331,6.466,6.771,9.455,10.358,7.32,8.784,11.48,18.971,16.91,28.475h36.064C478.9,906.282,469.138,889.226,454.912,875A252.153,252.153,0,0,0,416.1,843.573Z" transform="translate(0.024 65.458)"/><path class="d" d="M399.962,868.948c-19.215-19.228-40.7-36.247-61.489-52.705-8.1-6.43-16.495-13.066-24.62-19.752l-2.513-2.062c-43.628-35.82-88.72-72.872-131.434-111.328-2.135-1.928-4.282-3.965-6.369-6.1-19.435-19.423-33.831-43.043-48.094-67.565C107.362,578.41,87.256,547.373,67.8,517.348c-10.736-16.544-21.826-33.661-32.453-50.57C23.986,448.685,15.824,433.91,9.65,420.27A189.894,189.894,0,0,0,0,401.75v33.014a287.086,287.086,0,0,0,14.64,27.268,181.8,181.8,0,0,0,14.445,19.118c3.111,3.77,6.332,7.65,9.248,11.566,9.76,13.1,19.276,25.974,28.061,39.273a62.334,62.334,0,0,1,7.735,17.886c12.945,48.606,41.2,94.272,86.39,139.474a696.387,696.387,0,0,0,53.474,47.679c20.545,16.69,41.823,33.051,62.392,48.874,18.947,14.64,38.529,29.634,57.488,44.909a458.182,458.182,0,0,1,36.381,32.746c11.31,11.31,21.167,23.717,30.855,36.271H427.1q-3.171-4.1-6.5-8.186A302.7,302.7,0,0,0,399.962,868.948Z" transform="translate(0.024 88.506)"/><path class="d" d="M826.728,906.347c-7.43-24.083-29.915-40-43.628-61.148-14.152-21.814-18.532-48.5-29.988-71.835-17.337-35.381-46.849-40.115-81.888-45.654-35.381-5.6-66.528-20.74-91.954-46.117a221.155,221.155,0,0,1-32.7-42.445,352.281,352.281,0,0,1-27.207-55.975c-9.492-24.974-25.145-47.825-49.228-71.908-2.9-2.9-6.015-5.9-9.236-8.918-2.1-1.964-4.221-4.026-6.332-6.1-10.98-10.98-22.034-23.766-35.722-41.322-4.136-5.307-6.588-11.529-9.187-18.117-1.22-3.135-2.5-6.369-3.965-9.467-1.964-4.148-3.819-8.443-5.612-12.591-4.221-9.76-8.54-19.838-14.726-29.049-20.069-30.1-32.709-59.781-38.614-90.7-10.175-53.315-37.967-106.728-82.608-158.787-31.928-37.211-64.515-77.411-81.608-123.54A79.9,79.9,0,0,0,176.429,0H119.441q5.966,7.723,11.676,15.86c12.2,17.4,22.778,30.5,33.368,41.03l1.293,1.22a280.016,280.016,0,0,1,38.48,48.411c9.541,14.921,20.472,29.561,31.062,43.738,7,9.37,14.25,19.069,21.009,28.744,24.571,35.173,41.408,67.834,51.461,99.847,5.149,16.409,8.272,34.612,9.541,55.621,1.22,20.265,9.382,39.553,27.268,64.5a915.5,915.5,0,0,0,97.944,114.658q4.808,4.808,9.76,9.577l.976.976c4.7,4.7,9.1,9.931,13.347,14.994,1.928,2.294,3.843,4.587,5.807,6.832l-.561,1.22c-.817-.183-1.647-.342-2.44-.5a19.074,19.074,0,0,1-7.1-2.281c-8.113-5.344-16.641-11.578-26.084-19.081-9.223-7.32-18.532-14.872-27.536-22.168-13.921-11.3-28.329-22.985-42.7-34.075A269.429,269.429,0,0,1,340.1,446.53c-25.169-25.169-39.968-51.839-45.239-81.522l-.1-.5c-3.733-21.045-7.589-42.811-10.492-64.015-2.135-15.641-8.857-29.842-20.533-43.4-20.484-23.8-34.271-49.143-42.115-77.46-8.394-30.269-26.389-58.452-56.634-88.684C155.908,81.864,145.464,72.348,132.3,61c-12.822-10.98-25.5-22.754-37.662-34.929q-5.49-5.49-10.748-10.98c-.878-.915-1.757-1.806-2.635-2.684A177,177,0,0,0,67.492,0H2.66a114.953,114.953,0,0,0,22.3,15.665,175.185,175.185,0,0,1,41.03,30.1A151.781,151.781,0,0,1,94.235,84.951c6.991,13.872,16.666,26.9,29.622,39.822a291.828,291.828,0,0,0,29.769,25.621,180.32,180.32,0,0,1,18.081,15.714c21.7,21.7,32.941,45.495,34.539,72.726.2,3.66.451,7.259.7,10.895.744,10.822,1.5,21.961,1.013,32.489-1.708,36.979,14.409,72.47,52.266,115.085,6.271,7.052,12.957,14.152,19.886,21.07,39.041,39.041,83.548,70.945,126.59,101.8q8.149,5.82,16.263,11.676a321.033,321.033,0,0,1,39.773,33.368,226.9,226.9,0,0,1,31.6,39.187c6.442,10.163,13.42,20.313,20.143,30.122l6.1,8.87a271.873,271.873,0,0,0,32.4,39.175,281.725,281.725,0,0,0,53.144,41.481c15.043,9.126,24.876,22.339,39.321,31.721,18.837,12.3,38.736,22.07,56.512,36.137,22.644,17.947,42.445,40.407,53.059,67.284,1.525,3.892,2.879,8.138,1.83,12.2-10.37-11.078-25.535-21.094-40.932-22.083,16.836,26.841,46.532,51.241,68.541,74.885C695.709,872.869,577.5,867.269,502.4,792.164a289.143,289.143,0,0,1-41.408-52.827,41.194,41.194,0,0,0-6.2-7.552c-1.915-1.915-3.965-3.758-5.954-5.551l-2.672-2.44c-7.076-6.515-14.335-13.067-21.363-19.386-13.774-12.408-28.061-25.23-41.481-38.394l-.781-.781c-8.748-8.736-15.86-18.727-19.52-27.414-6.491-15.433-16.165-29.451-29.574-42.86a220.878,220.878,0,0,0-18.3-16.287c-10.224-8.2-20.167-17.276-29.781-26.072-4.307-3.929-8.748-7.991-13.164-11.92l-1.293-1.159-1.061,1.366c-14.152,18.166-10.809,38.577,9.931,60.648,1.928,2.05,3.941,4.112,6.1,6.308,6.1,6.1,12.469,11.993,18.654,17.739S317.049,637.16,323,643.126a221.275,221.275,0,0,1,14.958,16.348,247.656,247.656,0,0,0,16.763,18.557,215.6,215.6,0,0,0,57.683,41.481,146.3,146.3,0,0,1,38.419,27.756,186.521,186.521,0,0,1,28.866,37.918A169.623,169.623,0,0,0,505.91,819.6c17.483,17.471,38.687,30.147,64.82,38.748,18.764,6.173,28.219,16.849,44.7,26.255,15.263,8.7,32.709,12.92,49.314,18.2a344.046,344.046,0,0,1,107.106,56.475c10.09,7.869,20.3,17.568,25.267,28.939h44.531a74.458,74.458,0,0,1-7.613-15.08C826.594,951.915,833.365,927.844,826.728,906.347Z" transform="translate(0.61 0.11)"/><path class="d" d="M413.249,726.245c-3.135-3.135-6.283-6.466-9.358-9.907-1.806-2.025-3.66-4-5.551-5.88a125.143,125.143,0,0,0-47.679-30.171c-7.552-2.66-15.287-7.32-22.754-11.8-3.318-1.989-6.747-4.05-10.138-5.917l-.659-.366c-5.966-3.306-12.2-6.722-19.52-8.174l-4.88-.952,3.367,3.66c31.721,34.429,70.762,58.086,103.3,90.794,16.556,16.678,27.646,37.821,43.921,54.706,17.532,18.093,38.126,31.062,59.781,42.311h93.161c-13.811-7.052-27.609-14.043-41.115-21.3C506.569,797.129,452.4,765.384,413.249,726.245Z" transform="translate(64.429 143.806)"/><path class="d" d="M624.533,871.511c-13.652-9.1-23.937-22.461-37.735-31.33-12.835-8.26-27.5-13.53-41.127-20.375-33.258-16.678-64.015-37.979-92.576-61.746-1.915-1.6-3.867-3.4-6.173-5.71-1.635-1.635-3.233-3.306-4.88-4.978s-3.233-3.392-4.88-5.051c-1.427-1.44-2.733-2.672-3.977-3.806-2.44-2.184-4.88-4.538-7.235-6.82-7.064-6.783-14.372-13.8-22.314-18.13-18.117-9.894-33.063-20.863-45.727-33.526a157.576,157.576,0,0,1-30.427-42.457C321.294,625,312.5,613.109,300.639,601.226A315.584,315.584,0,0,0,271.261,575.9a201.557,201.557,0,0,1-18.715-16.422c-26.035-26.035-37.821-54.316-36.052-86.451.268-4.88.061-10-.134-14.945-.183-4.453-.378-9.065-.207-13.42,1.525-38.736-15.1-75.776-52.351-116.549-6.271-6.881-12.871-13.774-19.594-20.509C109.546,272.953,69.1,240.244,16.922,204.68,11.127,200.74,5.5,196.665,0,192.48v17.19c6.905,5.6,13.762,11.212,20.484,16.739C33.563,237.157,47.093,248.26,60.635,258.8A252.146,252.146,0,0,1,83.9,279.224c27.207,27.207,42.506,56.634,46.788,89.989,1.122,8.748,2.44,17.678,3.843,26.316,1.366,8.833,2.782,17.959,3.916,26.841,2.513,19.752,10.773,36.6,25.242,51.375,16.812,17.2,28.366,37.65,33.417,59.135,8.443,35.881,28.524,68.761,63.222,103.446,9.077,9.089,19.52,18.654,31.855,29.281,11.639,9.98,22.863,21,33.709,31.721,5.234,5.124,10.639,10.431,16.031,15.568.5.476.988.952,1.488,1.452.952.952,1.891,1.928,2.843,2.916s1.928,2,2.9,2.977a42.183,42.183,0,0,0,8.723,7.064c26.084,14.64,49.631,27.743,73.7,39.48,25.974,12.664,49.9,29.683,73.141,52.01,46.849,45.019,105.654,73.47,162.727,103.044,17.678,9.15,37.113,16.361,56.341,24.071h62.99c-26.389-26.084-61.563-43.006-97.724-52.461C666.953,887.7,643.541,884.187,624.533,871.511Z" transform="translate(0.024 42.461)"/><path class="d" d="M459.39,862.854c-9.089-9.1-16.958-17.215-24.047-24.8-2.745-2.952-5.332-5.624-7.881-8.186a203.6,203.6,0,0,0-35.32-28.707,356.158,356.158,0,0,1-60.892-48.4,307.042,307.042,0,0,1-44.36-55.987c-5.978-9.76-14.189-18.74-22.119-27.475l-3.66-3.977c-.9-1.013-1.879-2.025-2.965-3.123-2.44-2.44-4.88-4.7-7.418-6.93s-4.88-4.465-7.21-6.747A56.117,56.117,0,0,1,237,640.943c-26.938-38.431-58.622-84.011-89.33-130.726-26.011-39.688-40.041-83.5-42.75-134.032-.805-14.567-6.71-29.427-18.605-46.776A802.07,802.07,0,0,0,0,223.62v33.746Q2.269,260.184,4.441,263c4.392,5.71,6.82,12.456,9.382,19.606,1.44,4,2.928,8.138,4.795,12.078,1.6,3.367,3.172,6.857,4.685,10.236,4.758,10.663,9.711,21.558,16.617,31.4,20,28.536,31.867,56.6,35.3,83.426C79.826,456,97.6,489.135,116.305,524.211l1.659,3.111c12.2,22.9,29.464,43.067,46.141,62.575,5.661,6.637,11.529,13.506,17.08,20.374,29.683,36.6,47.13,66.272,56.536,96.382a67.1,67.1,0,0,0,16.849,27.56,82.985,82.985,0,0,0,17.288,13.128c9.675,5.6,19.52,11.468,28.988,17.154,24.4,14.579,49.631,29.671,74.946,41.6a205.454,205.454,0,0,1,58.415,41.31,275.849,275.849,0,0,1,32.941,40.261c13.128,19.276,28.988,35.954,46.141,51.327h30.9A571.2,571.2,0,0,1,486.4,889.39C477.495,880.727,468.283,871.736,459.39,862.854Z" transform="translate(0.024 49.313)"/><path class="d" d="M267.471,444.655c8.223,8.687,15.385,18.679,22.314,28.353,1.708,2.44,3.416,4.783,5.136,7.137,3.172,4.368,6.161,9.028,9.028,13.542,5.087,7.955,10.358,16.19,16.934,23.181,2.5,2.66,5.026,5.271,7.552,7.881,13.945,14.433,27.121,28.061,35.381,45.849a78.9,78.9,0,0,0,15.153,21.424c.817.817,1.647,1.61,2.44,2.367,18.3,16.483,37.272,32.831,55.6,48.643,9.76,8.394,19.789,17.08,29.634,25.621,2,1.757,4.112,3.5,6.173,5.2,3.794,3.135,7.723,6.381,11.1,9.76a48.49,48.49,0,0,1,5.942,7.027,106.31,106.31,0,0,0,12.713,15.531c15.616,15.616,34.649,23.766,59.879,25.621l4.807.354-3.66-3.184q-7.32-6.423-14.64-12.749c-10.651-9.248-21.668-18.8-32.075-28.658l-7.223-6.832c-16.2-15.324-32.941-31.184-48.972-47.191-6.82-6.832-13.03-13.189-18.959-19.435-13.591-14.348-26.255-30.025-38.5-45.141-4.612-5.71-9.382-11.615-14.14-17.361-2.867-3.477-5.454-7.113-8.711-11.712-.83-1.147-1.684-2.367-2.6-3.66,12.322,5.173,20.923,12.774,27.207,19.045,3.66,3.66,7.186,7.589,10.578,11.359,2.708,3.013,5.5,6.1,8.357,9.089q10.029,10.395,20,20.862c14.506,15.177,29.5,30.867,44.58,45.946,10.407,10.407,19.923,19.594,29.1,28.061A238.34,238.34,0,0,0,597.5,719.527l1.671-2.7a188.185,188.185,0,0,0-20.021-16.312c-31-22.558-55-42.469-75.178-62.7-22.5-22.5-40.468-45.446-54.975-70.139a170.625,170.625,0,0,0-25.9-33.234c-2.965-2.965-6.015-5.783-9.04-8.357-29.354-25-61.587-48.984-87.476-68.322-4.453-3.318-8.943-6.613-13.42-9.894-21.106-15.494-42.921-31.526-61.819-50.424a225.466,225.466,0,0,1-23.29-27.072A13.526,13.526,0,0,0,226.6,368.7a38.968,38.968,0,0,0-3.233-2.782c-.744-.586-1.476-1.159-2.159-1.769l-2.281-2.025-.4,3.013c-.781,5.807,1.013,10.712,2.745,14.848C231.8,405.1,249.647,425.9,267.471,444.655Z" transform="translate(48.064 79.787)"/><path class="d" d="M174.468,775.783c-2.05-2.062-4.2-4.111-6.393-6.1-37.516-34.307-75.947-68.871-113.1-102.3-18.056-16.239-36.6-32.941-55-49.533v48.594c14.457,12.762,27.926,25.389,40.59,38.053,47.215,47.215,83.316,94.979,110.352,146.025l.952,1.769h64.515c-2-5.636-3.77-11.261-5.246-16.934C205.872,815.068,193.184,794.473,174.468,775.783Z" transform="translate(0.02 136.054)"/><path class="d" d="M235.051,795.532a487.932,487.932,0,0,0-42.286-47.654c-12.627-12.627-26.548-25.56-45.141-41.9-11.834-10.407-23.181-20.984-33.551-31.416C101.262,661.707,89.367,648.726,78.8,636c-10.1-12.2-21.058-24.169-32.55-35.674A602.843,602.843,0,0,0,0,558.81v43.128q4.612,4.356,9.2,8.918c4.648,4.648,9.333,9.553,13.933,14.579,2.184,2.44,4.453,4.758,6.722,7.04a198.264,198.264,0,0,0,53.108,38.138A103.517,103.517,0,0,1,110.8,690.707a135.961,135.961,0,0,1,15.86,19.264c17.629,25.621,34.161,45.824,51.863,63.576a320.424,320.424,0,0,0,34.832,30.269,89.508,89.508,0,0,1,9.5,8.321c9.358,9.357,17.593,20.923,25.56,32.111,1.5,2.1,2.977,4.185,4.465,6.247a168.169,168.169,0,0,1,9.419,14.775H287.6c-8.674-11.322-17.178-22.7-25.535-33.892C253.278,819.591,244.176,807.4,235.051,795.532Z" transform="translate(0.024 123.064)"/><path class="d" d="M322.21,823.613c-12.481-9.626-24.547-20.558-36.21-31.135-4.624-4.2-9.406-8.54-14.152-12.725q-8.687-7.686-17.373-15.421c-43.116-38.321-87.7-77.948-136.3-110.1a91.6,91.6,0,0,1-13.847-11.419,78.1,78.1,0,0,1-11.676-14.64c-22.619-37.87-52.6-75.264-91.624-114.292L0,512.86V545q6.722,5.783,13.506,11.383c6.222,5.1,12.4,10.748,18.9,17.251C47.715,588.941,61.965,606.253,75.727,623l6.588,8c19.02,23.01,36.5,42.433,53.437,59.379a501.7,501.7,0,0,0,71.079,59.781,436.47,436.47,0,0,1,61.4,51.144,482.3,482.3,0,0,1,43.079,49.545c6.259,8.235,12.505,16.385,18.788,24.535h48.008a161.7,161.7,0,0,0-12.615-14.3A446.919,446.919,0,0,0,322.21,823.613Z" transform="translate(0.024 112.954)"/><path class="e" d="M0,811.868H13.176Q6.6,806.561,0,801.51Z" transform="translate(0.024 176.465)"/><path class="e" d="M5.124,129.276c-.634-1.915-1.22-3.9-1.684-5.832A59.787,59.787,0,0,0,0,113.22v13.152l3.172,3.172Z" transform="translate(0.024 25.021)"/><path class="e" d="M898.109,810.44h2.538A42.09,42.09,0,0,0,897.06,808C897.414,808.805,897.755,809.623,898.109,810.44Z" transform="translate(197.403 177.893)"/><path d="M649.129,255.121c4,8.443,5.344,17.922,9.126,26.45,4.77,10.761,13.128,19.459,19.716,29.22,9.626,14.238,15.409,30.659,22.937,46.117,6.7,13.762,15.3,27.548,28.146,36.369-11.724-9.821-16.324-26-19.362-40.383-3.367-15.995-5.771-32.941-15.372-46.141-6.1-8.443-14.86-14.884-19.96-23.961-4.148-7.32-5.588-15.921-9.15-23.571-3.855-8.308-10.065-15.275-16.4-21.9A415.336,415.336,0,0,0,589.47,186.08q21.691,23.657,43.384,47.337C638.991,240.078,645.225,246.911,649.129,255.121Z" transform="translate(129.725 41.053)"/><g transform="translate(0.024)"><path d="M40.59,695.723C27.926,683.059,14.457,670.432,0,657.67v38.48q4.392,4.282,8.821,8.7c7.833,7.833,15.763,16.007,24.242,24.986,28.793,30.5,63.441,69.115,93.54,113.682h25.291l-.952-1.769C123.906,790.7,87.842,742.938,40.59,695.723Z" transform="translate(0 144.816)"/><path d="M333.873,824.856c-18.959-15.275-38.541-30.33-57.488-44.909-20.57-15.86-41.847-32.184-62.392-48.874a696.387,696.387,0,0,1-53.474-47.679c-45.141-45.2-73.446-90.819-86.39-139.474a62.332,62.332,0,0,0-7.735-17.885c-8.809-13.3-18.3-26.17-28.061-39.273-2.916-3.916-6.1-7.8-9.248-11.566A181.807,181.807,0,0,1,14.64,456.078,287.089,287.089,0,0,1,0,428.81v37.821c4.7,6.539,9.028,13.31,13.237,19.911,2.538,3.977,5.173,8.077,7.833,12.066l1.061,1.586-5.454,2.44-.793-.854c-3.855-4.172-7.711-8.54-11.432-12.664L0,484.211v47.142l1.025,1.025c39.041,39.041,69,76.423,91.624,114.317a78.1,78.1,0,0,0,11.676,14.64,91.6,91.6,0,0,0,13.847,11.42c48.606,32.148,93.186,71.774,136.3,110.1q8.7,7.723,17.373,15.421c4.746,4.2,9.528,8.54,14.152,12.725,11.663,10.578,23.73,21.509,36.21,31.135A446.929,446.929,0,0,1,365.5,879.6a161.57,161.57,0,0,1,12.615,14.274h23c-9.687-12.554-19.52-24.962-30.855-36.271A458.181,458.181,0,0,0,333.873,824.856Z" transform="translate(0 94.46)"/><path d="M248.447,836.47c-7.967-11.188-16.2-22.754-25.56-32.111a89.522,89.522,0,0,0-9.5-8.321,320.407,320.407,0,0,1-34.832-30.269c-17.751-17.751-34.234-37.955-51.863-63.576a135.959,135.959,0,0,0-15.86-19.264,103.52,103.52,0,0,0-27.865-20.094A198.253,198.253,0,0,1,29.842,624.7c-2.269-2.281-4.539-4.636-6.722-7.04-4.6-5.026-9.284-9.931-13.933-14.579Q4.625,598.5,0,594.16v28.89c18.422,16.641,36.942,33.295,55,49.533,37.15,33.429,75.642,67.992,113.1,102.3,2.2,2,4.343,4.051,6.393,6.1,18.691,18.691,31.379,39.285,36.674,59.562,1.476,5.673,3.245,11.3,5.246,16.934h45.9A168.057,168.057,0,0,0,252.9,842.7C251.423,840.655,249.947,838.568,248.447,836.47Z" transform="translate(0 130.842)"/><path d="M772.412,959.284a344.051,344.051,0,0,0-107.106-56.463c-16.6-5.283-34.051-9.5-49.314-18.2-16.483-9.406-25.938-20.082-44.7-26.255-26.133-8.54-47.337-21.277-64.82-38.748A169.623,169.623,0,0,1,480.252,785.2a186.474,186.474,0,0,0-28.841-37.931,146.317,146.317,0,0,0-38.37-27.829,215.6,215.6,0,0,1-57.683-41.481A247.679,247.679,0,0,1,338.594,659.4a221.018,221.018,0,0,0-14.958-16.348c-5.954-5.966-12.322-11.846-18.471-17.544s-12.6-11.676-18.654-17.739c-2.2-2.2-4.209-4.258-6.1-6.308-20.74-22.07-24.083-42.481-9.931-60.648l1.061-1.366,1.293,1.159c4.416,3.928,8.857,7.991,13.164,11.92,9.614,8.8,19.52,17.873,29.781,26.072a220.863,220.863,0,0,1,18.3,16.287c13.42,13.42,23.083,27.426,29.574,42.86,3.66,8.687,10.761,18.679,19.52,27.414l.781.781c13.42,13.164,27.682,25.987,41.481,38.394,7.027,6.32,14.287,12.871,21.363,19.386l2.672,2.44c1.989,1.793,4.038,3.66,5.954,5.551a41.164,41.164,0,0,1,6.2,7.552,289.164,289.164,0,0,0,41.335,52.888c75.1,75.1,193.313,80.7,282.058,132.031-21.961-23.62-51.7-48.069-68.541-74.885,15.4.988,30.5,10.98,40.932,22.082,1.049-4.051-.3-8.3-1.83-12.2-10.614-26.841-30.415-49.338-53.059-67.284-17.776-14.067-37.674-23.839-56.512-36.137-14.445-9.419-24.279-22.632-39.321-31.721a281.727,281.727,0,0,1-53.144-41.481,271.947,271.947,0,0,1-32.4-39.175l-6.1-8.87c-6.735-9.76-13.7-19.96-20.143-30.122a226.805,226.805,0,0,0-31.6-39.187,320.919,320.919,0,0,0-39.773-33.368q-8.125-5.856-16.263-11.676c-43.067-30.867-87.61-62.77-126.651-101.811-6.93-6.918-13.616-14.018-19.886-21.07C222.9,354.662,206.746,319.2,208.454,282.193c.488-10.48-.268-21.668-1.013-32.489-.244-3.66-.5-7.32-.7-10.895-1.537-27.231-12.835-51.022-34.539-72.726a180.317,180.317,0,0,0-18.081-15.714,291.832,291.832,0,0,1-29.769-25.621c-12.871-12.9-22.546-25.926-29.537-39.8A151.781,151.781,0,0,0,66.577,45.763a175.185,175.185,0,0,0-41.03-30.1A114.953,114.953,0,0,1,3.245,0H0V39.761A217.136,217.136,0,0,0,26.67,55.938a148.022,148.022,0,0,1,37.7,27.939A216.933,216.933,0,0,1,81.12,102.824a163.746,163.746,0,0,0,13.03,14.421c3.916,3.916,8.064,7.82,12.066,11.59,3.5,3.306,7.125,6.71,10.6,10.138,3.062,3.026,6.283,6.015,9.394,8.906,3.489,3.245,7.088,6.6,10.529,10.029l.39.4c27.817,27.975,31.989,43.067,19.411,70.213l-.915,1.952L154,229.06c-5.868-5.1-11.92-10.2-17.788-15.128-13.481-11.334-27.426-23.059-40.066-35.71l-.9-.891a191.513,191.513,0,0,1-31.428-42.8C54.108,116.549,41.481,99.92,25.267,83.682A319.8,319.8,0,0,0,0,61.087V103.4l4.38,5.7c4.319,5.624,8.784,11.444,13.286,17.08,2.83,3.55,5.588,7.32,8.26,10.846,5.441,7.32,11.066,14.872,17.459,21.265l1.513,1.476q1.927,1.83,3.77,3.66A183.339,183.339,0,0,1,81.437,207.4c5.441,10.1,13.811,19.8,21.961,29.171,2.44,2.9,4.99,5.783,7.406,8.687,4.112,4.941,8.54,9.833,12.859,14.555,5.868,6.454,11.932,13.128,17.3,20.094,8.54,11.139,10.163,21.961,4.563,31.269l-1.22,1.952-1.452-1.745c-5.844-7.04-12.2-14.055-19.081-20.875-24.4-24.4-52.01-44.4-78.741-63.771C30.061,215.945,14.762,204.77,0,192.886v41.957c5.5,4.16,11.127,8.235,16.922,12.2,52.181,35.564,92.625,68.322,127.286,102.922,6.722,6.735,13.323,13.628,19.594,20.509,37.247,40.773,53.876,77.813,52.351,116.549-.171,4.368,0,8.979.207,13.42.2,4.941.4,10.053.134,14.945-1.769,32.123,10.016,60.465,36.052,86.439a201.565,201.565,0,0,0,18.715,16.422,315.584,315.584,0,0,1,29.378,25.328c11.883,11.883,20.741,23.778,26.841,36.357a157.575,157.575,0,0,0,30.427,42.457c12.664,12.664,27.609,23.632,45.727,33.526,7.942,4.331,15.25,11.346,22.314,18.13,2.367,2.281,4.88,4.636,7.235,6.82,1.22,1.135,2.55,2.367,3.977,3.806,1.659,1.659,3.282,3.355,4.88,5.051s3.209,3.343,4.88,4.978c2.306,2.306,4.258,4.112,6.173,5.71,28.561,23.766,59.318,45.068,92.576,61.746C559.3,869,573.962,874.272,586.8,882.532c13.8,8.87,24.083,22.229,37.735,31.33,19.008,12.676,42.42,16.19,64.527,21.961,36.162,9.406,71.335,26.328,97.724,52.461h10.895C792.713,976.852,782.5,967.153,772.412,959.284ZM266.564,444.859l.4-3.013,2.281,2.025c.683.61,1.415,1.22,2.159,1.769a38.965,38.965,0,0,1,3.233,2.782,13.523,13.523,0,0,1,1.452,1.684,225.466,225.466,0,0,0,23.29,27.072c18.9,18.9,40.712,34.929,61.819,50.424,4.478,3.282,8.967,6.576,13.42,9.894,25.889,19.289,58.122,43.274,87.476,68.322,3.026,2.574,6.1,5.393,9.04,8.357a170.627,170.627,0,0,1,25.9,33.234c14.506,24.693,32.477,47.581,54.974,70.139,20.179,20.179,44.177,40.09,75.349,62.709a188.18,188.18,0,0,1,20.021,16.312l-1.671,2.7A238.341,238.341,0,0,1,565.8,750.317c-9.175-8.54-18.691-17.69-29.1-28.061-15.08-15.08-30.074-30.769-44.58-45.946q-9.968-10.444-20-20.862c-2.855-2.952-5.649-6.1-8.357-9.089-3.392-3.77-6.893-7.662-10.578-11.358-6.283-6.271-14.884-13.872-27.207-19.045.915,1.22,1.769,2.44,2.6,3.66,3.257,4.6,5.844,8.235,8.711,11.712,4.758,5.746,9.528,11.651,14.14,17.361,12.2,15.165,24.913,30.842,38.5,45.141,5.929,6.247,12.139,12.6,18.959,19.435,16.019,16.007,32.77,31.867,48.972,47.191l7.223,6.832c10.407,9.858,21.424,19.411,32.075,28.659,4.88,4.233,9.76,8.467,14.64,12.749l3.66,3.184-4.807-.354c-25.23-1.867-44.263-10.016-59.879-25.621a106.337,106.337,0,0,1-12.749-15.555,48.5,48.5,0,0,0-5.942-7.027c-3.38-3.379-7.32-6.625-11.1-9.76-2.062-1.7-4.172-3.44-6.173-5.2-9.846-8.54-19.911-17.263-29.634-25.621-18.3-15.86-37.272-32.16-55.6-48.642-.842-.757-1.671-1.549-2.44-2.367a78.891,78.891,0,0,1-15.263-21.46c-8.284-17.776-21.46-31.416-35.381-45.849-2.525-2.611-5.051-5.222-7.552-7.881-6.576-6.954-11.846-15.189-16.934-23.181-2.867-4.514-5.856-9.175-9.028-13.542-1.72-2.355-3.428-4.746-5.136-7.137-6.93-9.675-14.091-19.667-22.314-28.353-17.776-18.752-35.674-39.553-46.2-64.661C267.577,455.571,265.783,450.666,266.564,444.859Z" transform="translate(0 0.11)"/><path d="M467.161,881.608a275.851,275.851,0,0,0-32.941-40.261,205.459,205.459,0,0,0-58.391-41.4c-25.316-11.932-50.546-27.024-74.946-41.6-9.492-5.685-19.313-11.554-28.988-17.154a82.989,82.989,0,0,1-17.288-13.128,67.1,67.1,0,0,1-16.849-27.56c-9.406-30.086-26.841-59.781-56.536-96.382-5.588-6.869-11.456-13.738-17.08-20.375-16.678-19.52-33.9-39.675-46.141-62.575l-1.7-3.05C97.6,483.049,79.826,449.913,75.215,413.69c-3.428-26.841-15.3-54.9-35.3-83.426-6.905-9.87-11.859-20.765-16.617-31.428-1.513-3.38-3.087-6.869-4.685-10.236-1.867-3.941-3.355-8.077-4.795-12.078-2.562-7.149-4.99-13.9-9.382-19.606Q2.269,254.1,0,251.28v55.78a169.859,169.859,0,0,1,12.2,43.823c4.783,34.893,19.276,69.542,43.067,102.983,13.42,18.8,26.34,38.211,38.858,57,7.735,11.59,15.738,23.6,23.754,35.308,1.147,1.671,2.294,3.379,3.428,5.1,4.5,6.747,9.138,13.725,14.64,19.228.83.83,1.671,1.623,2.5,2.342,3.477,3.038,6.869,6.21,10.1,9.443,23.083,23.083,39.724,50.582,50.863,84.084,8.54,25.5,22.51,47.788,42.847,68.126a252.377,252.377,0,0,0,37.333,30.428c25.108,17.08,50.973,33.587,76,49.606,19.874,12.725,40.42,25.877,60.477,39.187a252.1,252.1,0,0,1,38.809,31.391c14.225,14.226,23.986,31.282,34.844,47.862h23.547C496.149,917.562,480.289,900.884,467.161,881.608Z" transform="translate(0 55.399)"/><path d="M427.327,869.11a245.224,245.224,0,0,0-38.785-31.025q-12.463-8.254-25.023-16.4c-24.62-16.043-50.021-32.636-74.227-50.668a509.816,509.816,0,0,1-55.17-47.41c-32.355-32.355-56.9-66.748-75.068-105.142C137.5,572.9,105.374,527.868,60.77,480.824c-11.688-12.334-21.094-27.5-29.5-42.03-6.43-11.1-10.724-22.985-14.872-34.49l-.964-2.672A395.323,395.323,0,0,0,0,364.86v45.007a189.9,189.9,0,0,1,9.65,18.52c6.21,13.64,14.335,28.414,25.73,46.507,10.626,16.91,21.716,34.027,32.453,50.57,19.459,30.025,39.578,61,57.646,92.137,14.262,24.523,28.658,48.142,48.094,67.565,2.086,2.086,4.233,4.124,6.369,6.1,42.7,38.455,87.842,75.507,131.434,111.328l2.513,2.062c8.125,6.686,16.519,13.323,24.62,19.752,20.74,16.458,42.274,33.477,61.489,52.705a302.736,302.736,0,0,1,20.631,22.693q3.331,4.086,6.5,8.186h26.6c-5.429-9.5-9.565-19.691-16.91-28.475C433.793,875.881,430.67,872.441,427.327,869.11Z" transform="translate(0 80.389)"/><path d="M72.087,14.97c3.514,3.66,7.137,7.381,10.748,10.98,12.2,12.2,24.84,23.925,37.662,34.929,13.225,11.346,23.608,20.862,32.685,29.952,30.245,30.232,48.24,58.415,56.634,88.684,7.845,28.317,21.631,53.681,42.115,77.46,11.676,13.555,18.4,27.756,20.533,43.4,2.9,21.2,6.759,42.969,10.492,64.015l.1.5c5.271,29.683,20.069,56.353,45.239,81.522A269.437,269.437,0,0,0,354.207,469c14.409,11.09,28.817,22.778,42.7,34.075,9,7.32,18.3,14.848,27.536,22.168,9.443,7.5,17.971,13.738,26.084,19.081a19.074,19.074,0,0,0,7.1,2.281c.817.159,1.647.317,2.44.5l.561-1.22c-1.964-2.245-3.88-4.539-5.807-6.832-4.246-5.063-8.65-10.3-13.347-14.994l-.976-.976q-4.881-4.758-9.76-9.577a915.537,915.537,0,0,1-97.834-114.561c-17.886-24.95-26.035-44.238-27.268-64.5-1.22-21.009-4.392-39.212-9.541-55.621-10.053-32.014-26.841-64.662-51.461-99.847-6.759-9.675-14.006-19.374-21.009-28.744-10.59-14.177-21.521-28.817-31.062-43.738a280.036,280.036,0,0,0-38.48-48.374l-1.293-1.22C142.2,46.276,131.6,33.234,119.485,15.86q-5.7-8.1-11.676-15.86H55.8A176.892,176.892,0,0,1,69.464,12.286C70.331,13.164,71.209,14.055,72.087,14.97Z" transform="translate(12.278 0.11)"/><path d="M817.058,856.175c-6.966-33.209-26.963-61.38-44.6-89.965l-21.131-34.283c-7.32-11.822-14.64-23.717-24.059-33.941-10.846-11.8-24.157-21.07-38.077-28.988a268.521,268.521,0,0,0-81.352-30.184,585.429,585.429,0,0,1,108.107,72.8c-54.8-14.994-115.9-37.333-156.786-78.216a240.556,240.556,0,0,1-17.544-19.7c-3.66-4.563-7.479-9.138-11.2-13.567-14.018-16.714-28.524-34-35.722-54.291-6.039-17.08-16.836-32.941-33.966-50.094q-2.586-2.6-5.295-5.161c-2.7-2.55-5.344-5.124-7.881-7.662-39.444-39.456-61.892-79.07-68.614-121.137-5.966-37.357-22.7-74.7-49.728-111.023-11.883-15.946-23.034-32.648-33.807-48.8-7.747-11.59-15.751-23.6-23.961-35.2-5.7-8.077-12.322-15.86-18.727-23.486-3.66-4.27-7.32-8.674-10.87-13.091-2.83-3.55-5.856-7.125-8.772-10.59-7.552-8.955-15.372-18.215-21.021-28.061-6.661-11.554-12.2-23.632-17.617-35.308-3.819-8.3-7.772-16.873-12.09-25.181l-1.891-3.66c-4.88-9.5-9.955-19.264-16.483-27.475H145.14a79.9,79.9,0,0,1,6.1,12.676c17.08,46.129,49.68,86.329,81.608,123.552,44.641,52.059,72.433,105.471,82.608,158.787,5.9,30.928,18.544,60.6,38.614,90.7,6.1,9.211,10.5,19.3,14.726,29.049,1.793,4.148,3.66,8.443,5.612,12.591,1.464,3.1,2.733,6.332,3.965,9.467,2.6,6.588,5.051,12.81,9.187,18.117,13.616,17.666,24.6,30.415,35.661,41.432,2.111,2.111,4.234,4.172,6.332,6.1,3.221,3.013,6.332,6.015,9.236,8.918,24.083,24.083,39.736,46.935,49.228,71.909a352.258,352.258,0,0,0,27.207,55.926,221.159,221.159,0,0,0,32.7,42.445c25.425,25.425,56.622,40.517,91.954,46.117,35.039,5.539,64.552,10.321,81.888,45.653,11.456,23.339,15.86,50.021,29.988,71.835,13.713,21.143,36.2,37.064,43.628,61.148,6.637,21.5-.171,45.568,7.32,66.8a74.475,74.475,0,0,0,7.576,15.116H839.9a282.034,282.034,0,0,1-11.212-34.161C820.511,922.056,823.817,888.445,817.058,856.175Z" transform="translate(31.935 0.09)"/><path d="M306.987,190.044c28.793,28.8,48.435,59.928,61.843,97.98,16.178,45.922,42.311,89.062,77.679,128.359q6.173,6.821,12.359,13.591c28.4,31.16,49.094,61,71.079,97.6,11.2,18.618,22.546,37.43,37.821,52.852,23.022,23.181,53.462,37.26,83.206,50.839a219.6,219.6,0,0,1-68.8-70.542c7.32,12.005,34.075,23.083,46.044,30.305,16.812,10.151,33.99,19.679,51.241,29.122,34.271,18.8,68.956,37.016,101.7,58.439,68.529,44.812,121.478,107.57,163.215,177.563,9.492,15.934,18.593,32.465,31.892,45.4,31.343,30.5,82.108,37.333,107.96,72.579,3.331,4.526,6.1,9.431,9.236,14.116h33.344c-30.5-25.316-62.49-49.057-93.71-73.495-23.254-18.2-46.471-37.162-63.527-61.258-16.617-23.461-26.731-50.863-41.31-75.642-8.894-15.128-21.668-27.707-32.672-41.261-13.128-16.165-18.191-30.257-23.8-50.131a5.813,5.813,0,0,1-.134-4c.988-2.025,3.794-2.147,6.039-1.964,12.762,1.025,25.621,2.062,37.919,5.624s24.144,9.87,32.209,19.813c5.063,6.234,8.467,13.664,13.42,19.972s11.151,11.176,16.483,16.995a74.83,74.83,0,0,1,17.3,31.818c-10.065-41.737-33.612-83.072-72.592-101.079-7.467-3.44-15.348-5.978-22.607-9.833-7.723-4.112-14.64-9.651-22.144-14.067-10.273-6.027-21.46-7.759-32.172-12.31s-20.741-8.906-32.014-12.054c-38.834-10.822-75.91-25.047-116.22-31.257-36.784-5.661-67.858-19.789-95-43.177-7.064-6.1-14.018-12.542-20.655-19.179a400.067,400.067,0,0,1-68.944-92.881,370.9,370.9,0,0,0-64.918-87.2c-5.429-5.429-11.175-10.858-17.08-16.129-4.124-3.66-8.125-7.467-11.92-11.249-23.608-23.571-40.688-49.35-50.8-76.642-2.623-7.04-7.54-14.25-12.31-21.2-1.305-1.928-2.623-3.843-3.88-5.746-10.358-15.677-21.009-31.574-31.318-46.947-20.692-30.818-42.079-62.746-62.112-94.467C238.019,47.056,218.962,21.485,199.247,0H176.92a366.49,366.49,0,0,1,47.923,74.678A423.954,423.954,0,0,0,306.987,190.044Z" transform="translate(38.927 0.11)"/><path d="M81.949,808.145l-.22-.22C71.6,797.957,60.818,788.319,50.375,779.01c-6.1-5.4-12.3-10.98-18.3-16.58C20.667,751.974,10.114,742.214,0,732.82v41.139c16.544,12.579,34.161,22.7,51.412,32.575C62.7,813,74.336,819.674,85.573,826.982h9.907l-1.915-3.013C89.623,817.758,86.207,812.4,81.949,808.145Z" transform="translate(0 161.351)"/><path d="M504.726,815.655c-23.242-22.327-47.166-39.346-73.141-52.01-24.071-11.737-47.581-24.828-73.7-39.48a42.176,42.176,0,0,1-8.723-7.064c-.976-.976-1.94-1.977-2.9-2.977s-1.891-1.964-2.843-2.916c-.5-.5-.988-.976-1.488-1.452-5.393-5.136-10.8-10.443-16.031-15.568-10.846-10.663-22.07-21.68-33.709-31.721-12.347-10.6-22.778-20.167-31.855-29.281-34.7-34.685-54.779-67.565-63.222-103.446-5.051-21.485-16.6-41.932-33.417-59.135-14.47-14.811-22.729-31.623-25.242-51.375-1.135-8.918-2.55-18.044-3.916-26.841-1.342-8.638-2.721-17.568-3.843-26.316-4.282-33.356-19.581-62.783-46.788-89.989a252.1,252.1,0,0,0-23.266-20.374c-13.542-10.541-27.072-21.643-40.151-32.392C13.762,217.792,6.905,212.18,0,206.58v20.74A802.032,802.032,0,0,1,86.256,333.109c11.9,17.349,17.8,32.209,18.605,46.776,2.769,50.534,16.8,94.381,42.872,134.057,30.708,46.715,62.392,92.3,89.33,130.726a56.116,56.116,0,0,0,6.515,7.576c2.294,2.281,4.795,4.551,7.21,6.747s5.027,4.551,7.418,6.93c1.086,1.1,2.062,2.111,2.965,3.123l3.66,3.977c7.93,8.735,16.141,17.776,22.119,27.475a307.042,307.042,0,0,0,44.36,55.987,356.153,356.153,0,0,0,60.831,48.423,203.547,203.547,0,0,1,35.32,28.683c2.55,2.562,5.136,5.234,7.881,8.186,7.088,7.589,14.958,15.7,24.047,24.8,8.894,8.882,18.105,17.874,27.024,26.56a571.173,571.173,0,0,0,57.793,49.631H567.5c-21.619-11.249-42.213-24.218-59.781-42.311-16.324-16.836-27.414-38.028-43.921-54.706-32.489-32.709-71.53-56.365-103.3-90.794l-3.367-3.66,4.88.952c7.32,1.452,13.555,4.88,19.52,8.174l.659.366c3.392,1.867,6.82,3.928,10.138,5.917,7.467,4.49,15.2,9.138,22.754,11.8a125.144,125.144,0,0,1,47.679,30.171c1.867,1.879,3.745,3.855,5.551,5.88,3.074,3.44,6.222,6.771,9.358,9.907,39.151,39.139,93.344,70.884,141.889,96.98,13.506,7.32,27.3,14.25,41.115,21.3h63.136c-19.228-7.711-38.663-14.921-56.341-24.071C610.38,889.088,551.575,860.674,504.726,815.655Z" transform="translate(0 45.563)"/><path d="M268.235,795.5a436.462,436.462,0,0,0-61.4-51.144,501.7,501.7,0,0,1-71.079-59.781c-16.934-16.946-34.417-36.369-53.437-59.379l-6.588-8C61.965,600.445,47.667,583.133,32.4,567.822a247,247,0,0,0-18.9-17.251Q6.722,544.983,0,539.2v23.925a602.841,602.841,0,0,1,46.251,41.481c11.493,11.5,22.449,23.5,32.55,35.674,10.565,12.725,22.436,25.706,35.308,38.565,10.431,10.431,21.717,21.009,33.551,31.416,18.581,16.336,32.5,29.281,45.141,41.9a487.684,487.684,0,0,1,42.262,47.654c9.126,11.871,18.227,24.059,27.024,35.844,8.357,11.188,16.861,22.571,25.535,33.892h42.494c-6.283-8.15-12.53-16.3-18.788-24.535A482.3,482.3,0,0,0,268.235,795.5Z" transform="translate(0 118.749)"/><path d="M394.4,136.888c36.479,30.672,71.872,67.016,113.1,91.234,21.094,12.371,43.982,21.265,61,39.114l.207.22c18.91,19.935,36.235,41.213,54.779,61.477,20.96,22.936,44.665,44.385,73.409,56.195-7.7-3.16-20.521-32.941-26.17-40.566A371.646,371.646,0,0,0,636.093,304.3c-12.005-12.078-25.035-22.595-38.114-33.417-10.614-8.8-16.043-20-25.621-29.647-36.162-36.6-82.84-60.611-125.663-88.208C398.919,122.162,353.485,86.781,310.65,49.18,331.647,83.951,363.306,110.755,394.4,136.888Z" transform="translate(68.352 10.931)"/><path d="M838.61,799.742c-22.741-19.13-39.8-43.921-56.561-68.517-25.816-37.821-45.141-81.12-77.2-114.17-6.674-6.893-15.6-13.908-24.876-11.444,17.654,16.239,37.382,40,43.775,63.7,2.806,10.431,3.135,18.447,6.991,28.561s9.126,19.435,12.2,30.11c11.712,41.481,7.54,85.89,19.886,127.1h53.986c-4.88-14.2-8.125-29.183-11.249-43.848,14.079,18.117,30.842,29.793,47.8,43.848h58.012C891.072,832.756,861.986,819.372,838.61,799.742Z" transform="translate(149.613 133.25)"/><path d="M980.982,770.318c-20.216-12.2-42.14-24.8-59.781-40.517-18.3-16.3-32.855-36.308-51.656-52.059-8.65-7.247-18.3-13.64-25.1-22.619-5.783-7.589-9.284-16.629-14.116-24.852A88.306,88.306,0,0,0,784.96,592.45c16.056,13.42,32.868,27.817,39.3,47.691,1.61,4.99,2.538,10.248,4.88,14.909,5.649,10.98,18.3,16.666,25.12,26.963,3.4,5.136,5.173,11.151,7.918,16.666,6.283,12.627,17.263,21.777,28.488,29.9,18.069,13.067,33.478,30.5,51.937,43.823,19.337,13.994,39.456,26.841,59.184,40.261,20.289,13.8,40.554,28.414,58.561,45.141h50.119c-1.684-1.732-3.38-3.453-5.112-5.124C1069.458,817.8,1023.488,795.939,980.982,770.318Z" transform="translate(172.714 130.466)"/><path d="M1144.958,765.474c-11.127-11.822-17.08-26.841-26.841-38.87-10.98-13.42-25.974-22.4-39.041-34.161a291.655,291.655,0,0,1-69.176-92.2l63.344,56.121c-4.063-26.658-18.569-50.534-34.686-72.153C975.96,500.2,885.056,432.748,804.9,366c15.409,19.52,31.086,38.882,46.825,58.159,22.668,27.78,41.823,54.9,57.451,87.964,2.855,6.039,5.624,12.2,9.76,17.483,8.845,11.371,23.181,17.776,30.928,29.915a117.216,117.216,0,0,1,5.844,11.517c10.98,22.387,25.255,39.626,34.783,63.185,9.321,23.034,19.789,45.666,37.162,63.856,29.879,31.294,74.727,46.739,99.908,81.925,21.961,30.671,57.341,42.237,78.631,73.36,12.127,17.715,22.254,36.759,34.6,54.279h43.555c-15.36-15.86-28.829-32-41.737-53.3C1219.661,816.556,1175.276,797.695,1144.958,765.474Z" transform="translate(177.101 80.64)"/><path d="M1185.034,607.468c13.25,18.081,21.668,39.578,37.406,55.865,16.678,17.41,39.688,26.987,59.952,40.053,46.361,29.9,80.864,79.753,133.691,95.614-35.6-30.672-59.22-73.2-94.149-104.654-14.787-13.31-31.416-24.4-46.215-37.821-10.8-9.76-20.57-20.557-31.391-30.257-31.026-27.829-69.615-45.507-107.558-62.758C1151.984,579.968,1171.858,589.484,1185.034,607.468Z" transform="translate(250.122 124.098)"/><path d="M1236.919,452.995A1257.7,1257.7,0,0,0,1132.68,350.671c-22.79-19.911-52.791-43.921-84.28-46.361.256,5.868,9.7,12.53,13.53,16.385,6.661,6.7,13.689,13.006,20.838,19.167,14.335,12.347,29.281,24.071,42.969,37.113,16.617,15.775,31.416,33.356,47.5,49.692a444.123,444.123,0,0,0,90.063,70.518c15.141,8.967,28.427,19.191,42.445,29.72.732-3.428-1.952-6.552-4.429-9.028C1279.8,496.355,1257.306,475.492,1236.919,452.995Z" transform="translate(230.678 67.067)"/><path d="M1077.691,755.691c-29.573-18.971-53.571-18.886-73.6-51.851A607.176,607.176,0,0,0,942.78,620.06a135.652,135.652,0,0,0,20.387,47.581c6.747,9.919,14.872,19.045,19.691,30.025s6.1,22.973,11.59,33.4c4.526,8.54,11.6,15.4,18.679,21.96,20.082,18.666,41.859,34.344,58.964,56.024,10.87,13.8,20.46,28.561,30.867,42.7h57.524a191.972,191.972,0,0,0-9.126-21.961C1135.337,797.977,1107.179,774.613,1077.691,755.691Z" transform="translate(207.438 136.541)"/><path d="M539.648,19.984a459.784,459.784,0,0,1,63.088,78.533,148.917,148.917,0,0,0,19.52,24.4A101.629,101.629,0,0,0,636.25,134.74c24.889,17.08,48.948,35.491,72.36,54.608,9.968,8.138,22.4,15.86,29.439,26.56,7.857,11.981,14.872,25.511,18.752,39.346,4.331,15.458,8.186,30.5,15.141,45.239a171.479,171.479,0,0,0,19.825,32.465c7.454,9.553,17.349,16.361,25.108,25.377,15.629,18.178,30.684,36.2,48.533,52.632,18.727,17.276,38.223,32.807,63.2,50.375,7.894,5.551,15.982,11.139,23.791,16.544,24.4,16.885,49.643,34.344,73.2,53.4,18.191,14.75,36.845,30.915,55.438,48.057,12.713,11.7,25.706,24.157,38.638,37.016,27.695,27.512,41.823,60.635,52.888,89.513,7.491,19.52,16.324,39.992,34.612,56.829,1.22,1.11,2.44,2.2,3.66,3.245,1.83,1.537,3.66,3.123,5.368,4.709A141.981,141.981,0,0,1,1249.009,816c12.737,27.292,28.488,49.375,48.167,67.516a193.543,193.543,0,0,0,29.378,22.241,66.674,66.674,0,0,1,8.687,6.82c1.012.891,2.013,1.781,3.038,2.635,3.66,3.123,7.406,6.381,10.98,9.76,21.643,19.948,39.492,41.8,54.718,63.283h19.435q-5.064-5.686-9.931-11.627c-30.733-37.589-63.136-75.117-94.455-111.4-19.215-22.253-39.041-45.275-58.366-68.065a251.856,251.856,0,0,1-29.83-44.653l2.574-1.9q7.443,7.479,14.848,15.043c11.6,11.834,23.62,24.059,35.869,35.6l.891.83a232.585,232.585,0,0,0,18.752,14.982c3.66,2.745,7.5,5.588,11.151,8.54,4.88,3.88,9.76,7.894,14.433,11.785,8.455,6.979,17.2,14.2,26.084,20.74l.4.3c9.76,7.259,19.947,14.775,29.952,18.3a140.465,140.465,0,0,1,48.886,29.817c2.562,2.367,5.136,4.88,7.65,7.5,8.125,8.455,16.824,16.7,25.242,24.681,5.722,5.441,11.639,11.053,17.349,16.69,1.757,1.757,3.563,3.477,5.344,5.124a164.486,164.486,0,0,0,40,27.67h112.426V950.28a228.763,228.763,0,0,1-16.958-26.975c-28.756-53.425-67.87-102.482-119.563-150.173-30.013-27.658-64.393-54.9-105.105-83.365a159.7,159.7,0,0,0-36.223-18.752c-44.08-16.117-82.388-44.69-117.843-72.567-38.126-29.988-75.227-59.562-110.071-91.661-8.748-8.064-17.2-16.153-25.133-24.035-2.05-2.037-4.087-4-6.1-5.819a134.327,134.327,0,0,0-20.277-15.763,119.385,119.385,0,0,1-18.3-13.811,122.7,122.7,0,0,1-28.963-41.091c-21.168-47.215-46.959-102.287-86-157.725l-3.087-4.38,4.99,1.94c22.9,8.894,49.167,20.618,70.457,40.261a140.25,140.25,0,0,1,16.958,18.727,490.849,490.849,0,0,1,35.93,54.9c28.622,51.083,68.822,100.128,122.869,149.929,11.59,10.675,23.705,21.326,37.028,32.538,44.946,37.821,84.6,62.612,124.8,78.021,28.292,10.846,52.607,30.037,76.105,48.606,8.1,6.393,16.47,13.006,24.876,19.179,34.307,25.169,69.664,54.633,108.094,90.038,8.345,7.686,17.08,15.86,26.072,24.4q2.708,2.586,5.478,5.148a183.116,183.116,0,0,0,22.058,17.849,121.036,121.036,0,0,1,14.408,11.31c1.22,1.1,2.355,2.22,3.489,3.367V819.542c-13.42-12.615-25.816-27.17-37.821-41.3-4.746-5.576-9.65-11.346-14.518-16.861a246.166,246.166,0,0,0-18.056-18.764c-10.98-10.077-21.387-17.08-32.941-22.082-15.555-6.747-30.5-16.836-45.69-30.818-11.981-11.041-22.985-23.449-33.111-35.21a173.551,173.551,0,0,0-13.652-14.177,135.779,135.779,0,0,0-41.359-26.487c-60.111-24.144-117.708-62.038-176.1-115.842-16.422-15.128-32.733-31.306-49.863-49.46-24.01-25.45-46.483-52.864-68.212-79.387q-6.734-8.222-13.494-16.422c-8.6-10.443-15.336-22.2-21.887-33.648-5.173-9.053-6.405-14.018-4.234-17.08,2.025-2.9,6.6-3.514,15.3-2.05,36.174,6.1,63.905,17.52,87.269,36.064,33.783,26.841,70.127,49.179,105.276,70.762,10.333,6.356,21.021,12.932,31.489,19.52a209.6,209.6,0,0,1,30.5,23.181,189.7,189.7,0,0,1,26.768,30.611c12.383,17.666,27.9,34.881,48.8,54.157,12.554,11.566,25.877,22.815,38.76,33.7,5.917,4.99,11.834,9.98,17.69,15.019,6.832,5.868,12.432,10.834,17.629,15.616,17.08,15.751,31.831,32.367,44.348,51.8,11.053,17.154,15.995,38.8,28.268,54.816,14.116,18.386,39.993,22.119,59.647,34.4a113.027,113.027,0,0,1,19.2,15.751V721.891c-6.49-5.515-12.7-10.98-18.667-16.495-47.727-43.921-80.375-89.416-99.823-138.937a125.356,125.356,0,0,0-28.622-42.7c-23.351-21.961-38.138-46.361-49.533-67.236a220.825,220.825,0,0,0-44.775-57.793,227.113,227.113,0,0,0-23.181-18.715,305.646,305.646,0,0,1-31.111-25.133c-24.645-22.7-46.141-49.68-65.723-82.486-10.529-17.642-19.057-30.842-27.634-42.823a270.892,270.892,0,0,0-36.064-41.481c-36.015-33.173-76.325-47.337-123.223-43.3-10.687.915-21.375,2.257-31.721,3.562-48.081,6.1-82.083,9.345-125.016-18.374-2.44-1.549-34.441-24.059-32.441-25.291-28.475,16.983,54.9,73.958,71.982,83.462,31.184,17.337,57.341,40.993,94.638,44.458a194.009,194.009,0,0,1,37.382,7.223c55.89,16.629,110.059,50.29,170.45,105.947,4.185,3.855,8.54,7.906,12.835,12.042,5.039,4.819,10.443,9.882,17.08,15.946l14.64,13.42q6.918,6.3,13.811,12.627l2.44-1.22c-1.427-2.513-2.782-5.087-4.1-7.6-3.38-6.417-6.869-13.067-11.651-18.532-26.95-30.867-54.462-60.831-80.339-88.867-3.66-3.977-7.479-7.784-11.322-11.334-22.9-21.094-48.8-34.429-77.142-39.614-15.86-2.928-32.075-5.6-47.691-8.186-13.42-2.22-27.17-4.5-40.786-6.942a36.44,36.44,0,0,1-18.849-8.821A33.12,33.12,0,0,1,1038.4,188.69c-.793-5.563.134-9.467,2.843-11.932,3.6-3.282,9.943-3.66,19.947-1.293,12.957,3.1,26.182,6.954,38.968,10.687,6.2,1.806,12.591,3.66,18.874,5.429a297.341,297.341,0,0,1,122.466,68.675c7.5,6.905,14.848,14.348,21.838,22.095,49.692,55.182,99.14,112.072,146.953,167.144l26.194,30.122c8.43,9.76,16.214,20.069,23.742,30.11,3.465,4.6,7.027,9.358,10.614,13.994l2.708,3.489-4.319-.915a19.376,19.376,0,0,1-9.565-4.88c-.561-.512-1.11-1.074-1.684-1.708-11.407-12.6-23.022-24.4-34.527-34.966a425.454,425.454,0,0,0-55.487-43.457,68.516,68.516,0,0,1-8.748-6.771,48.122,48.122,0,0,1-5.075-5.429,87.219,87.219,0,0,0-9.126-9.858,79.3,79.3,0,0,0-33.38-18.3c-13.725-3.806-26.548-11.31-39.163-22.949-1.525-1.391-3.062-2.879-4.587-4.4-15.25-15.311-31.123-30.5-46.483-45.287l-6.722-6.454c-.927-.9-1.867-1.781-2.806-2.647-22.912-21.119-48.094-33.221-74.824-35.991h-.317c-18.3-1.9-37.284-3.855-55.536-4.587-15.287-.6-29.4-5.746-43.14-15.751-46.727-33.978-107.362-47.508-151.845-84.267-28.988-23.986-66.565-38.419-100.2-55.475s-68.627-35.381-89.062-66.992C685.966,39.114,680.281,19.947,676.9,0H637.507C673.5,129.518,820.877,175.22,886.124,284.6A265.8,265.8,0,0,0,799.258,157.31c35.857,28.744,73.653,48.435,99.664,87.549C925.189,284.352,946.5,327,971.087,367.631c6.405,10.6,12.786,20.887,20.643,30.293,1.708,2.037,3.416,4.136,5.148,6.247,6.1,7.467,12.4,15.189,19.228,21.485a68.743,68.743,0,0,0,9.053,7.149,260.439,260.439,0,0,1,34.161,26.78c19.972,18.386,36.454,38.614,49.948,55.987,6.954,8.943,13.859,17.581,21.851,24.95a74.123,74.123,0,0,0,21.96,14.518c20.13,8.284,38.724,20.631,58.561,38.858,12.542,11.554,24.242,24.4,33.038,34.222a163.563,163.563,0,0,0,11.517,11.724,161.142,161.142,0,0,0,41.017,27.438q7.814,3.66,15.677,7.32c18.4,8.54,37.418,17.324,55.377,28.061A641.952,641.952,0,0,1,1472.2,780.94c52.461,48.338,101.445,108.046,154.163,187.884l2.318,3.5-4.063-1.037c-8.784-2.233-17.788-4.477-26.95-6.759-25.169-6.259-51.241-12.737-77.447-20.277-9.236-2.66-20.557-9.309-30.281-17.8-35.649-31.135-74.849-63.136-120.014-86.415a136.01,136.01,0,0,1-30.269-20.643,99.072,99.072,0,0,1-15.86-18.642c-16.361-25.1-37.345-49.094-66.016-75.508-6.588-6.1-13.579-12.273-21.4-18.984-4.368-3.745-8.7-7.6-12.883-11.444a460.015,460.015,0,0,1-66.248-75.9,148.651,148.651,0,0,0-20.557-23.547,101.338,101.338,0,0,0-14.457-11.249c-58.134-36.6-110.315-78.545-153.724-114.683q-5.55-4.625-11.066-9.309c-13.591-11.468-27.646-23.339-42.152-33.648a467.634,467.634,0,0,1-46.52-37.04C837.7,360.811,818.534,330.982,804.333,291c-3.2-8.992-6.466-18.3-10.382-27.207l1.842,1.684c13.1,12.017,26.658,24.4,40.725,35.381a465.545,465.545,0,0,1,44.97,38.919c24.559,24.559,49.106,47.789,73.69,72.7a523.387,523.387,0,0,0,89.709,72.775L968.525,411.54c-30.574-29.512-52.717-63.149-82.779-93.21-18.02-18.02-36.857-34.332-61.1-52.9-7.662-5.881-15.506-11.8-23.1-17.52-23.693-17.861-48.191-36.332-70.908-56.341-17.568-15.482-35.539-32.392-53.425-50.277-12.2-12.2-24.693-25.194-37.1-38.565-26.487-28.7-39.248-62.368-49.094-91.673C589.8,7.393,588.51,3.733,587.132,0H518.81c2.721,2.611,5.539,5.271,8.54,8.016C531.449,11.932,535.622,15.958,539.648,19.984Z" transform="translate(114.153 0.11)"/><path d="M496.046,0H474.22c24.34,19.3,46.825,40.92,69.273,62.49A777.5,777.5,0,0,0,496.046,0Z" transform="translate(104.342 0.11)"/><path d="M1262.939,769.111l-18.74-17.288-30.9-28.463-1.976.708c.464,1.452.854,2.928,1.22,4.38,1.122,4.185,2.184,8.138,4.636,11.261,21.875,27.951,48.082,60.05,78.594,89.355h40.578c-23.29-16.263-47.337-35.905-72.616-59.2Z" transform="translate(266.525 159.269)"/><path d="M327.916,179.8c22.436,22.961,36.223,47.862,46.739,69.2a221.255,221.255,0,0,0,42.384,59.586A226.27,226.27,0,0,0,439.5,328.188a306.684,306.684,0,0,1,30.061,26.377c23.693,23.693,44.067,51.534,62.295,85.109,9.76,18.056,17.776,31.6,25.852,43.921a271.123,271.123,0,0,0,34.344,42.945c34.624,34.612,74.324,50.424,121.368,48.3,10.712-.488,21.46-1.391,31.843-2.269,6.7-.561,13.616-1.147,20.472-1.61,28.988-1.977,54.9,7.43,78.082,24.864,18.3,13.811,34.527,30.4,53.938,42.6,30.293,19.069,66.113,29.635,84.4,63.222,13.884,25.5,15.214,57.964,35.271,78.972,9.528,9.992,22.29,16.19,33.221,24.632s20.594,20.838,19.459,34.6c5.5-2.538,5.551-10.382,3.721-16.153-5.649-17.788-20.216-31.013-31.22-46.081-17.532-24-24.144-53.315-40.664-78.277a244.548,244.548,0,0,0-67.407-68.017c-15.531-10.334-32.392-19.069-45.812-32.013-14.018-13.53-23.083-31.953-37.821-44.665-12.92-11.114-27.182-19.093-39.895-31.123-21.436-20.289-44.812-31.855-71.481-35.515a194.95,194.95,0,0,1-37.064-8.76c-55.158-18.9-107.9-54.743-165.924-112.816-4.014-4.026-8.162-8.247-12.322-12.566-4.88-5.014-10.041-10.3-16.361-16.629q-7.1-6.941-14.1-13.933-6.661-6.588-13.286-13.189l-2.44,1.11c1.33,2.574,2.574,5.2,3.794,7.759,3.111,6.552,6.32,13.335,10.87,19,25.621,31.94,51.937,63,76.642,92.076,3.514,4.124,7.162,8.089,10.858,11.785,21.961,21.961,47.4,36.393,75.447,42.7,15.8,3.575,31.818,6.905,47.325,10.126,13.25,2.769,26.963,5.612,40.468,8.6a36.594,36.594,0,0,1,18.3,9.577,33.122,33.122,0,0,1,9.309,20.411c.573,5.588-.512,9.443-3.331,11.81-3.733,3.123-10.077,3.282-19.972.476-12.822-3.66-25.877-8.028-38.5-12.273-6.1-2.062-12.432-4.185-18.642-6.2A297.4,297.4,0,0,1,571.031,453.46c-7.21-7.21-14.25-14.945-20.911-22.985-47.41-57.158-94.479-116.025-140.01-172.963q-12.468-15.592-24.937-31.172c-8.028-10.029-15.385-20.74-22.5-31.05-3.258-4.746-6.637-9.65-10.029-14.421l-2.562-3.66,4.282,1.1a19.513,19.513,0,0,1,9.358,5.21c.537.537,1.061,1.122,1.61,1.781,10.883,13.054,21.961,25.291,33.075,36.357a425.935,425.935,0,0,0,53.681,45.678,66.594,66.594,0,0,1,8.455,7.125,47.563,47.563,0,0,1,4.88,5.624,86.042,86.042,0,0,0,8.711,10.236,79.3,79.3,0,0,0,32.6,19.594c13.567,4.368,26.06,12.4,38.2,24.535,1.464,1.452,2.94,3,4.392,4.587,14.64,15.86,29.854,31.794,44.592,47.142l6.454,6.735c.9.939,1.793,1.854,2.708,2.757,22.034,22.034,46.69,35.161,73.287,39.041h.3c18.239,2.647,37.1,5.38,55.3,6.844,15.25,1.22,29.146,6.954,42.469,17.507,32.7,25.877,69.981,44.226,106.8,62.953,30.257,15.4,29.1,47.52,53.449,68.932,7.747,6.808,17.7,10.517,26.316,16.214,18.679,12.371,29.793,33.136,45.227,49.375,12.835,13.506,28.78,23.961,40.456,38.48,22.3,27.707,25.84,65.5,37.54,99.091a206.006,206.006,0,0,0,66.467,93.3c-32.831-26.682-42.3-71.762-54.9-112.169-16.751-54.194-43.311-116.256-77.752-161.471-39.041-51.241-85.841-97.224-116.818-154.273-19.13-35.234-37.2-68.517-55.694-102.214-5.954-10.846-11.92-21.387-19.386-31.111-1.623-2.1-3.245-4.27-4.88-6.442-5.8-7.711-11.773-15.69-18.3-22.253a70.123,70.123,0,0,0-8.748-7.515,260.349,260.349,0,0,1-33.063-28.146c-19.191-19.2-34.844-40.09-47.581-57.988-6.576-9.223-13.128-18.13-20.814-25.828a73.989,73.989,0,0,0-21.4-15.4c-19.777-9.1-37.821-22.192-56.866-41.225-12.066-12.054-23.181-25.328-31.611-35.539-3.526-4.282-7.235-8.382-10.98-12.2a161.8,161.8,0,0,0-39.846-29.1c-5.112-2.684-10.236-5.307-15.372-7.942-18.032-9.272-36.674-18.849-54.181-30.367Q457.775,3.171,453.176,0H406.242q11.09,8.857,22.888,17.837A159.906,159.906,0,0,0,464.51,38.065c43.384,17.91,80.522,48.02,114.768,77.325,36.869,31.526,72.738,62.587,106.24,96.089,8.406,8.406,16.531,16.836,24.12,25.035,1.964,2.123,3.928,4.16,5.832,6.1a133.932,133.932,0,0,0,19.655,16.568,119.116,119.116,0,0,1,17.752,14.555,122.5,122.5,0,0,1,27.268,42.152c19.228,48.081,42.8,104.166,79.473,161.154l2.9,4.5-4.88-2.147c-22.5-9.76-48.276-22.607-68.749-43.079a141.647,141.647,0,0,1-16.178-19.411,488.278,488.278,0,0,1-33.648-56.353C712.554,308.338,674.4,257.694,622.431,205.721c-11.151-11.139-22.815-22.266-35.674-34.027-43.36-39.627-81.962-66.016-121.5-83.047-27.829-11.993-51.327-32.172-74.056-51.68C383.366,30.245,375.277,23.3,367.128,16.8Q356.953,8.674,346.655,0H321.035a203.976,203.976,0,0,1,15.58,14.1c11.517,11.517,21.961,24.4,31.635,36.528a174.982,174.982,0,0,0,13.066,14.726,135.863,135.863,0,0,0,40.261,28.158c59.049,26.584,115.049,66.8,171.194,122.942,15.787,15.775,31.416,32.611,47.8,51.461,22.937,26.4,44.275,54.718,64.906,82.1q6.405,8.541,12.81,16.971c8.174,10.785,14.409,22.8,20.5,34.515,4.795,9.26,5.82,14.262,3.526,17.288-2.135,2.806-6.734,3.233-15.372,1.427-35.893-7.552-63.136-20.13-85.719-39.6-32.66-28.17-68.053-52.01-102.287-75.056-10.065-6.771-20.484-13.786-30.672-20.74a209.472,209.472,0,0,1-29.537-24.4,189.806,189.806,0,0,1-25.5-31.721c-11.651-18.154-26.45-35.979-46.568-56.121-12.066-12.066-24.925-23.852-37.357-35.247-5.7-5.234-11.407-10.456-17.08-15.726-6.588-6.1-11.981-11.334-16.971-16.336-14.97-14.982-26.67-28.768-35.893-42.286q-5.258-7.686-9.48-15.336A133.693,133.693,0,0,0,266.963,17.3,160.052,160.052,0,0,0,246.369,0h-32.6c42.152,43.689,70.762,88.257,87.293,136.009A125.218,125.218,0,0,0,327.916,179.8Z" transform="translate(47.035 0.11)"/><path d="M1450.593,142.528c-17.556-16.519-41.042-24.876-61.965-36.869-47.85-27.426-84.9-75.41-138.5-88.489,37.162,28.756,62.978,70.017,99.493,99.579,15.458,12.53,32.648,22.778,48.118,35.308,11.3,9.138,21.619,19.447,32.941,28.573,15.69,12.652,33.014,22.827,51.107,31.721V184.033C1472.017,169.7,1463.391,154.448,1450.593,142.528Z" transform="translate(275.064 3.888)"/><path d="M1370.472,281c-.549,3.465,2.294,6.442,4.88,8.8,22.619,20.362,46.19,40,67.76,61.428q6.1,6.039,12.2,12.005V332.79a444.043,444.043,0,0,0-40.9-24.327C1398.826,300.3,1385.027,290.76,1370.472,281Z" transform="translate(301.528 61.938)"/><path d="M1092.356,67.2c2.233,1.574,2.33-1.22.39-3.172-18.825-18.8-32.941-41.359-47.105-64.027H1018.3C1041.115,24.608,1065.015,47.825,1092.356,67.2Z" transform="translate(224.055 0.11)"/><path d="M1320.137,168.193c31.416,26.06,67.175,51.5,109.314,77.765a159.976,159.976,0,0,0,37.162,16.836,270.336,270.336,0,0,1,31.513,11.993V248.3c-12.322-5.136-24.669-10.639-36.6-17a642.856,642.856,0,0,1-107.9-72.7c-49.789-41.286-97.224-92.051-148-158.6H1175.82a230.592,230.592,0,0,1,17.08,24.474C1224.4,76.325,1266.029,123.333,1320.137,168.193Z" transform="translate(258.714 0.11)"/><path d="M1015.191,69.224c7.589,7.162,15.446,14.091,23.327,20.631,10.382,8.613,20.96,16.629,31.44,23.827,24.4,16.739,49.46,33.124,73.751,48.972,18,11.749,36.6,23.9,54.791,36.1a718.756,718.756,0,0,1,58.378,43.238c50.021,41.481,84.938,85.109,106.948,133.532a125.4,125.4,0,0,0,30.806,41.1c24.474,20.741,40.517,44.287,52.986,64.552a220.687,220.687,0,0,0,47.728,55.377,228.392,228.392,0,0,0,24.181,17.483,303.728,303.728,0,0,1,29.5,21.094V553.893c-21.96-22.632-43.787-45.214-65.271-67.48l-27.731-28.719c-8.931-9.236-17.251-19.191-25.291-28.817-3.66-4.417-7.516-8.992-11.334-13.42l-2.879-3.343,4.355.683a19.408,19.408,0,0,1,9.76,4.331,16.65,16.65,0,0,1,1.769,1.61c12.054,11.993,24.266,23.181,36.308,33.124a425.453,425.453,0,0,0,57.683,40.493,68.143,68.143,0,0,1,9.089,6.308,48.2,48.2,0,0,1,5.356,5.149,87.652,87.652,0,0,0,8.137,8.089V480a189.449,189.449,0,0,1-25.084-26.389c-13.286-16.995-29.671-33.368-51.583-51.534-13.091-10.895-26.987-21.424-40.407-31.623q-9.26-7.015-18.447-14.067c-7.137-5.514-12.981-10.175-18.422-14.64-17.886-14.823-33.49-30.647-47.008-49.4-11.932-16.556-17.983-37.918-31.086-53.266-15.055-17.629-41.091-20.008-61.355-31.245-17.934-9.943-31.013-26.706-47.386-39.041-21.96-16.507-48.423-24.327-73.031-35.686-26.109-12.054-48.277-30.672-72.14-46.52a293.484,293.484,0,0,1-24.767-18.422C1015.544,49.3,995.475,26.975,977,0H944.49C967.561,23.181,991.217,46.629,1015.191,69.224Z" transform="translate(207.815 0.11)"/><path d="M1450.7,29.518c-1.854-1.086-3.66-2.159-5.6-3.2a66.9,66.9,0,0,1-8.991-6.344c-1.049-.842-2.111-1.671-3.172-2.44-3.855-2.928-7.723-5.99-11.493-9.1-3.318-2.757-6.527-5.576-9.76-8.406H1391.39C1411.179,21,1431.175,41.8,1450.7,62.215Z" transform="translate(306.145 0.116)"/><path d="M1429.613,94.2a135.437,135.437,0,0,1,31.306,19.02,100.433,100.433,0,0,1,14.14,14.311V98.407l-4.795-3.55c-8.809-6.527-17.922-13.274-27.133-19.386l-.415-.281c-10.175-6.735-20.741-13.713-30.867-16.739a140.349,140.349,0,0,1-50.387-27.219c-2.672-2.22-5.38-4.612-8.016-7.088-8.54-8.016-17.69-15.86-26.511-23.339L1326,0H1280.66a95.526,95.526,0,0,1,24.584,14.165C1342.467,43.384,1383.289,73.312,1429.613,94.2Z" transform="translate(281.782 0.11)"/><path d="M1363.709,8.529q9.76,8.138,19.63,16.275l32.343,26.841,1.927-.805c-.537-1.427-1.013-2.891-1.476-4.319-1.342-4.111-2.6-8-5.209-10.98-9.846-11.3-20.5-23.315-31.941-35.491H1353.29c3.172,2.562,6.344,5.149,9.565,7.808Z" transform="translate(297.762 0.121)"/><path d="M1161.566,98.383a284.191,284.191,0,0,0,23.3,17.4,191.73,191.73,0,0,1,15.4,11.578c14.762,12.2,28.536,26.841,41.847,40.9,5.039,5.319,10.236,10.822,15.372,16.08a248.422,248.422,0,0,0,19.02,17.788c11.444,9.492,22.253,15.958,34.026,20.338,15.86,5.929,31.343,15.214,47.24,28.39,12.542,10.395,24.181,22.2,34.893,33.417a171.311,171.311,0,0,0,14.384,13.42,135.87,135.87,0,0,0,42.7,24.3,488.043,488.043,0,0,1,69.175,29.988v-29.11q-13.127-5.54-26.145-9.76c-28.829-9.345-54.108-27.255-78.545-44.568-8.418-5.954-17.08-12.127-25.84-17.837-35.576-23.351-72.433-50.924-112.657-84.28-8.735-7.235-17.922-14.994-27.317-23.059q-2.842-2.439-5.746-4.88a184.491,184.491,0,0,0-22.949-16.678,119.352,119.352,0,0,1-14.982-10.541,94.221,94.221,0,0,1-23.766-28.927C1165.665,53.059,1143.534,26.06,1122.11,0H1081.3q9.76,14.531,18.911,28.475C1119.084,57.11,1138.568,79.3,1161.566,98.383Z" transform="translate(237.917 0.11)"/><path d="M1425.694,511.51c-21.119-24.035-37.894-53.035-57.244-78.594A2049.332,2049.332,0,0,0,1156.08,193.68a299.839,299.839,0,0,0,84.084,117.513c19.874,16.91,42.1,31.33,59.2,51.058,16.641,19.2,27.658,42.579,42.445,63.234,11.517,16.08,25.23,30.415,37.906,45.58,35.723,42.774,60.465,93.32,93.564,137.217A235.93,235.93,0,0,0,1502.422,640V575.671C1477.021,554.723,1447.349,536.179,1425.694,511.51Z" transform="translate(254.37 42.725)"/><path d="M814.069,108.468a347.334,347.334,0,0,1-48.02-43.921c-8.418-9.309-16.58-19.52-19.228-31.831-2.208-10.248-.4-21.277-4.209-31.038-.22-.573-.488-1.11-.744-1.659H681.22a191.767,191.767,0,0,0,12.969,24.559C720.932,66.243,768.794,88.423,814.069,108.468Z" transform="translate(149.888 0.114)"/><path d="M891.847,94.979c18.093,7.979,37.955,14.836,57.341,10.883-45.788-17.52-82.73-51.9-118.428-85.5C824,14.006,817.145,7.491,811.753,0H769.32C798.759,42.311,844.071,73.922,891.847,94.979Z" transform="translate(169.272 0.11)"/><path d="M917.589,60.513c20.74,13.018,41.481,26.06,63.441,36.833a351.983,351.983,0,0,0,79.766,27.89c-35.515-26.926-77.935-43.494-113.231-70.566C926.947,38.846,909.208,19.752,892.3,0H851.83a172,172,0,0,0,13.054,18.874C879.134,36.271,898.545,48.545,917.589,60.513Z" transform="translate(187.427 0.11)"/></g></g></g></g></svg>